<svg width="87" height="87" viewBox="0 0 87 87" fill="none" xmlns="http://www.w3.org/2000/svg">
<g clip-path="url(#clip0)">
<path d="M87 43.5003C87.01 52.1081 84.466 60.5253 79.69 67.6866C74.914 74.8478 68.1207 80.4312 60.1701 83.7299C52.2194 87.0285 43.4689 87.8942 35.026 86.2174C26.5831 84.5405 18.8275 80.3965 12.7409 74.3099C6.65425 68.2233 2.51025 60.4677 0.833399 52.0248C-0.843447 43.5819 0.0222556 34.8314 3.32093 26.8807C6.6196 18.9301 12.2029 12.1368 19.3642 7.36083C26.5255 2.58483 34.9427 0.0408189 43.5505 0.0508106C55.074 0.0508106 66.1256 4.62851 74.2739 12.7769C82.4223 20.9252 87 31.9768 87 43.5003Z" fill="url(#paint0_linear)"/>
<path d="M16.4912 15.733C22.9002 9.50018 31.2675 5.67577 40.1745 4.90823C49.0814 4.14069 57.9797 6.47726 65.3605 11.5217C72.7413 16.5662 78.1503 24.0081 80.6703 32.5855C83.1904 41.1629 82.6663 50.348 79.1871 58.5831C75.7078 66.8182 69.4875 73.5966 61.5808 77.7689C53.6742 81.9412 44.5679 83.2505 35.8061 81.4749C27.0442 79.6993 19.1661 74.948 13.5076 68.0267C7.84911 61.1054 4.75848 52.4402 4.75981 43.5002C4.75198 38.3215 5.78662 33.1942 7.80208 28.4237C9.81754 23.6533 12.7726 19.3373 16.4912 15.733Z" fill="url(#paint1_linear)"/>
<path d="M81.381 43.5003C81.381 50.9926 79.1592 58.3167 74.9967 64.5463C70.8342 70.776 64.9179 75.6314 57.9958 78.4986C51.0738 81.3658 43.4571 82.116 36.1087 80.6543C28.7603 79.1926 22.0104 75.5847 16.7126 70.2868C11.4147 64.9889 7.80677 58.239 6.34509 50.8907C4.88341 43.5423 5.6336 35.9255 8.50079 29.0035C11.368 22.0815 16.2234 16.1652 22.453 12.0027C28.6827 7.84014 36.0068 5.61841 43.4991 5.61841C48.4738 5.61841 53.3998 6.59825 57.9958 8.50199C62.5919 10.4057 66.768 13.1961 70.2856 16.7138C73.8033 20.2314 76.5936 24.4075 78.4974 29.0035C80.4011 33.5996 81.381 38.5256 81.381 43.5003Z" fill="url(#paint2_linear)"/>
<path d="M43.6824 77.9567C43.6823 77.8021 43.7423 77.6534 43.8498 77.5422C43.9572 77.4309 44.1037 77.3658 44.2583 77.3606C44.3366 77.3579 44.4147 77.3706 44.4881 77.3981C44.5614 77.4256 44.6287 77.4673 44.6859 77.5208C44.7431 77.5743 44.7893 77.6385 44.8217 77.7099C44.8541 77.7812 44.8721 77.8582 44.8747 77.9365C44.8722 78.0921 44.8099 78.2408 44.7009 78.3518C44.5918 78.4627 44.4442 78.5275 44.2886 78.5327C44.133 78.5329 43.9832 78.4732 43.8703 78.366C43.7574 78.2587 43.6901 78.1122 43.6824 77.9567ZM41.2775 78.4822C41.1247 78.4718 40.9818 78.4031 40.8783 78.2902C40.7749 78.1773 40.7188 78.029 40.7217 77.8759C40.7321 77.7195 40.8037 77.5735 40.921 77.4695C41.0382 77.3655 41.1917 77.3118 41.3482 77.3201C41.5001 77.328 41.643 77.3946 41.7467 77.5058C41.8504 77.6171 41.9068 77.7643 41.904 77.9163C41.8987 78.0673 41.8343 78.2102 41.7247 78.3141C41.615 78.4181 41.469 78.4748 41.3179 78.4721L41.2775 78.4822ZM46.643 77.8052C46.6383 77.7852 46.6383 77.7645 46.643 77.7445C46.6444 77.597 46.6996 77.4551 46.7982 77.3454C46.8968 77.2356 47.032 77.1656 47.1785 77.1484C47.2569 77.14 47.3361 77.1472 47.4117 77.1697C47.4872 77.1921 47.5576 77.2293 47.6187 77.2791C47.6797 77.3289 47.7303 77.3903 47.7675 77.4598C47.8047 77.5293 47.8278 77.6055 47.8353 77.6839V77.8052C47.8364 77.9518 47.7834 78.0936 47.6864 78.2036C47.5895 78.3135 47.4554 78.3839 47.3099 78.4013H47.2392C47.081 78.4013 46.9294 78.3385 46.8176 78.2267C46.7058 78.1149 46.643 77.9633 46.643 77.8052ZM38.2865 78.1487C38.1437 78.1313 38.0122 78.062 37.9171 77.9539C37.8221 77.8458 37.7702 77.7066 37.7712 77.5627C37.7668 77.5325 37.7668 77.5019 37.7712 77.4717C37.7961 77.3167 37.8812 77.1777 38.0079 77.085C38.1347 76.9923 38.2929 76.9533 38.4482 76.9766C38.5893 76.9962 38.7183 77.0665 38.8113 77.1744C38.9043 77.2822 38.9548 77.4203 38.9534 77.5627C38.9583 77.5928 38.9583 77.6235 38.9534 77.6536C38.9338 77.7946 38.8635 77.9237 38.7556 78.0167C38.6478 78.1097 38.5098 78.1602 38.3674 78.1588H38.2865V78.1487ZM49.5834 77.4111C49.578 77.3708 49.578 77.3301 49.5834 77.2898C49.5833 77.1536 49.6306 77.0216 49.7173 76.9165C49.804 76.8113 49.9246 76.7397 50.0583 76.7139C50.1353 76.6992 50.2144 76.6999 50.2911 76.7159C50.3678 76.7318 50.4406 76.7627 50.5054 76.8068C50.5701 76.8509 50.6255 76.9074 50.6685 76.9729C50.7114 77.0384 50.741 77.1118 50.7555 77.1888C50.7621 77.2289 50.7621 77.2699 50.7555 77.31C50.7514 77.4467 50.7013 77.5779 50.6133 77.6824C50.5252 77.787 50.4044 77.8587 50.2705 77.886H50.1493C50.0162 77.8843 49.8876 77.8373 49.7848 77.7528C49.682 77.6684 49.6109 77.5514 49.5834 77.4212V77.4111ZM35.3663 77.593C35.2364 77.5594 35.1212 77.4837 35.0389 77.3776C34.9566 77.2715 34.9118 77.1411 34.9116 77.0069C34.9116 77.0069 34.9116 76.916 34.9116 76.8654C34.9499 76.7131 35.0467 76.5821 35.181 76.5007C35.3153 76.4193 35.4763 76.3943 35.6291 76.4309C35.7592 76.4622 35.8755 76.5356 35.9595 76.6398C36.0436 76.744 36.0909 76.873 36.0939 77.0069C36.0987 77.0539 36.0987 77.1013 36.0939 77.1484C36.0623 77.2775 35.9885 77.3924 35.8841 77.4748C35.7798 77.5572 35.6509 77.6024 35.5179 77.6031H35.3663V77.593ZM52.544 76.7745C52.5334 76.7211 52.5334 76.6662 52.544 76.6128C52.5413 76.4834 52.5814 76.3568 52.6582 76.2526C52.7349 76.1484 52.844 76.0725 52.9684 76.0369C53.1211 75.9962 53.2837 76.0167 53.4214 76.0941C53.5592 76.1715 53.6613 76.2996 53.7061 76.4512C53.7109 76.5049 53.7109 76.559 53.7061 76.6128C53.7049 76.7427 53.662 76.8688 53.5838 76.9725C53.5056 77.0762 53.3961 77.152 53.2716 77.1888H53.1099C52.975 77.2038 52.8389 77.1732 52.7235 77.1017C52.6081 77.0303 52.52 76.9222 52.4733 76.7947L52.544 76.7745ZM32.4259 76.7947C32.3075 76.7537 32.2045 76.6775 32.1305 76.5764C32.0564 76.4753 32.015 76.3541 32.0116 76.2289C32.0019 76.1652 32.0019 76.1005 32.0116 76.0369C32.0367 75.9625 32.0762 75.8937 32.1279 75.8346C32.1796 75.7755 32.2424 75.7272 32.3129 75.6925C32.3833 75.6577 32.4599 75.6372 32.5382 75.6322C32.6166 75.6271 32.6952 75.6376 32.7695 75.663C32.8876 75.7032 32.9901 75.7794 33.0626 75.8809C33.1351 75.9824 33.174 76.1041 33.1737 76.2289C33.1781 76.2928 33.1781 76.3569 33.1737 76.4208C33.1304 76.5389 33.052 76.6409 32.949 76.7132C32.8461 76.7854 32.7235 76.8245 32.5977 76.825C32.5392 76.8237 32.4813 76.8135 32.4259 76.7947ZM55.3026 75.9257C55.2895 75.8522 55.2895 75.7769 55.3026 75.7034C55.3029 75.5828 55.3397 75.4651 55.4083 75.3659C55.4768 75.2667 55.5738 75.1906 55.6865 75.1477C55.7594 75.1186 55.8374 75.1044 55.9158 75.106C55.9943 75.1076 56.0716 75.1249 56.1432 75.157C56.2148 75.189 56.2793 75.2351 56.3327 75.2925C56.3862 75.3499 56.4276 75.4175 56.4545 75.4912C56.4689 75.5612 56.4689 75.6334 56.4545 75.7034C56.4564 75.8232 56.4216 75.9406 56.3548 76.04C56.2879 76.1393 56.1923 76.2158 56.0806 76.2592C56.0073 76.2744 55.9316 76.2744 55.8583 76.2592C55.7395 76.2633 55.6222 76.2306 55.5227 76.1655C55.4232 76.1003 55.3463 76.006 55.3026 75.8954V75.9257ZM29.6068 75.6832C29.4986 75.6389 29.4062 75.5633 29.3414 75.466C29.2766 75.3688 29.2423 75.2544 29.243 75.1376C29.2277 75.0608 29.2277 74.9819 29.243 74.9052C29.2738 74.8325 29.3187 74.7667 29.3751 74.7116C29.4315 74.6565 29.4983 74.6131 29.5716 74.5839C29.645 74.5548 29.7233 74.5405 29.8022 74.5419C29.8811 74.5432 29.9589 74.5602 30.0311 74.5919C30.1374 74.6406 30.2273 74.719 30.29 74.8176C30.3528 74.9162 30.3857 75.0308 30.3848 75.1477C30.3816 75.2275 30.3645 75.3061 30.3343 75.3801C30.2884 75.4863 30.2121 75.5766 30.115 75.6395C30.0179 75.7025 29.9043 75.7352 29.7886 75.7337C29.7257 75.7267 29.6643 75.7096 29.6068 75.6832ZM58.0308 74.7738C57.9916 74.6953 57.9709 74.6089 57.9702 74.5212C57.9691 74.4069 58.0009 74.2947 58.0618 74.1979C58.1227 74.1012 58.2102 74.024 58.3137 73.9755C58.3839 73.9415 58.4602 73.9219 58.5381 73.9177C58.6159 73.9136 58.6939 73.925 58.7673 73.9514C58.8407 73.9777 58.9081 74.0185 58.9655 74.0712C59.023 74.1239 59.0693 74.1876 59.1019 74.2585C59.1421 74.3366 59.1629 74.4232 59.1625 74.5111C59.165 74.6231 59.1349 74.7334 59.0756 74.8286C59.0164 74.9237 58.9307 74.9995 58.8291 75.0466C58.7474 75.087 58.6574 75.1077 58.5663 75.1073C58.4546 75.1085 58.3448 75.0778 58.2499 75.0187C58.155 74.9597 58.079 74.8747 58.0308 74.7738ZM26.8886 74.3696C26.7938 74.3185 26.7146 74.2427 26.6595 74.1501C26.6043 74.0576 26.5753 73.9519 26.5754 73.8442C26.5796 73.7461 26.6037 73.6498 26.6461 73.5613C26.723 73.4237 26.8503 73.3215 27.0012 73.2763C27.1521 73.231 27.3146 73.2462 27.4545 73.3187C27.5493 73.3699 27.6285 73.4457 27.6836 73.5382C27.7388 73.6307 27.7678 73.7365 27.7677 73.8442C27.7698 73.9431 27.7453 74.0408 27.697 74.1271C27.6468 74.2226 27.5711 74.3025 27.4784 74.3577C27.3857 74.413 27.2795 74.4416 27.1716 74.4404C27.0728 74.441 26.9755 74.4167 26.8886 74.3696ZM60.6681 73.3592C60.6092 73.2652 60.5777 73.1568 60.5771 73.0459C60.5775 72.9434 60.6048 72.8429 60.6562 72.7542C60.7077 72.6656 60.7814 72.5919 60.8702 72.5407C60.9374 72.4993 61.0123 72.4719 61.0904 72.4601C61.1685 72.4484 61.2482 72.4526 61.3246 72.4724C61.4011 72.4922 61.4727 72.5273 61.5353 72.5755C61.5978 72.6237 61.65 72.684 61.6886 72.7529C61.7401 72.8458 61.7678 72.9499 61.7695 73.056C61.7701 73.1587 61.7433 73.2597 61.6917 73.3485C61.6402 73.4374 61.5659 73.5108 61.4764 73.5613C61.3863 73.6203 61.281 73.6519 61.1733 73.6522C61.0668 73.6646 60.959 73.6465 60.8624 73.6C60.7658 73.5535 60.6844 73.4805 60.6277 73.3895L60.6681 73.3592ZM24.2918 72.7933C24.2061 72.7403 24.1358 72.6658 24.0879 72.5771C24.04 72.4885 24.0163 72.3888 24.0189 72.2881C24.0167 72.1753 24.0523 72.0651 24.12 71.9748C24.162 71.9093 24.2166 71.8527 24.2807 71.8085C24.3447 71.7643 24.417 71.7333 24.4932 71.7173C24.5694 71.7013 24.648 71.7006 24.7245 71.7154C24.8009 71.7301 24.8737 71.7599 24.9385 71.8031C25.0181 71.8568 25.0835 71.9289 25.1293 72.0134C25.175 72.0978 25.1997 72.1921 25.2012 72.2881C25.2034 72.4071 25.168 72.5238 25.1001 72.6215C25.048 72.7057 24.9751 72.7751 24.8883 72.8229C24.8016 72.8707 24.704 72.8953 24.605 72.8944C24.4993 72.9001 24.3941 72.8756 24.3019 72.8236L24.2918 72.7933ZM63.1538 71.7829C63.0838 71.6817 63.0452 71.5622 63.0426 71.4393C63.0426 71.3452 63.0646 71.2524 63.1067 71.1682C63.1487 71.084 63.2099 71.0108 63.2852 70.9543C63.3473 70.9062 63.4186 70.8713 63.4948 70.8518C63.5709 70.8323 63.6502 70.8286 63.7278 70.8409C63.8054 70.8532 63.8797 70.8813 63.9461 70.9234C64.0124 70.9655 64.0695 71.0207 64.1137 71.0856C64.1923 71.1829 64.2351 71.3042 64.235 71.4292C64.2346 71.5243 64.2115 71.618 64.1676 71.7024C64.1236 71.7868 64.0601 71.8594 63.9824 71.9142C63.8827 71.9883 63.7629 72.0306 63.6388 72.0355C63.5471 72.0359 63.4566 72.0151 63.3742 71.9748C63.2918 71.9345 63.2199 71.8757 63.1639 71.8031L63.1538 71.7829ZM21.8364 71.0452C21.768 70.9884 21.7127 70.9174 21.6743 70.8372C21.6359 70.7569 21.6154 70.6693 21.6141 70.5804C21.6126 70.449 21.6553 70.3209 21.7353 70.2167C21.7837 70.1534 21.8443 70.1004 21.9136 70.0609C21.9828 70.0215 22.0592 69.9963 22.1384 69.9869C22.2175 69.9775 22.2977 69.984 22.3743 70.0061C22.4508 70.0282 22.5222 70.0655 22.5841 70.1156C22.6541 70.171 22.7105 70.2417 22.7491 70.3223C22.7876 70.4028 22.8072 70.4911 22.8064 70.5804C22.8079 70.7118 22.7652 70.84 22.6851 70.9442C22.6287 71.0163 22.5566 71.0746 22.4744 71.1149C22.3921 71.1551 22.3018 71.1762 22.2102 71.1766C22.0808 71.1756 21.9544 71.137 21.8465 71.0654L21.8364 71.0452ZM65.5082 70.0348C65.4172 69.9235 65.3673 69.7844 65.3667 69.6407C65.3677 69.5566 65.3862 69.4737 65.421 69.3972C65.4558 69.3206 65.5061 69.2521 65.5688 69.1961C65.6909 69.0952 65.8473 69.0452 66.0053 69.0564C66.1634 69.0677 66.311 69.1395 66.4176 69.2567C66.5125 69.3657 66.563 69.5064 66.559 69.6508C66.5582 69.7364 66.5398 69.8209 66.5051 69.8991C66.4703 69.9773 66.4199 70.0475 66.3569 70.1055C66.2449 70.1951 66.1063 70.2448 65.9629 70.247C65.8753 70.2424 65.79 70.2182 65.713 70.1762C65.6361 70.1343 65.5695 70.0756 65.5182 70.0045L65.5082 70.0348ZM19.5628 69.1355C19.5018 69.0809 19.4531 69.0139 19.42 68.9389C19.3869 68.864 19.3701 68.7829 19.3709 68.701C19.3721 68.5495 19.4257 68.4032 19.5224 68.2867C19.637 68.178 19.7889 68.1173 19.9468 68.1173C20.1048 68.1173 20.2567 68.178 20.3712 68.2867C20.4304 68.3428 20.4778 68.4101 20.5107 68.4847C20.5437 68.5593 20.5615 68.6397 20.5632 68.7212C20.56 68.8741 20.5027 69.0208 20.4015 69.1355C20.3461 69.1955 20.279 69.2436 20.2042 69.2766C20.1295 69.3096 20.0487 69.3269 19.967 69.3275C19.8894 69.3201 19.8142 69.2965 19.7463 69.2582C19.6785 69.2199 19.6194 69.1678 19.573 69.1052L19.5628 69.1355ZM67.7008 68.0139C67.6432 67.9614 67.5972 67.8974 67.5658 67.8261C67.5345 67.7547 67.5185 67.6775 67.519 67.5996C67.5158 67.5207 67.5295 67.4421 67.5591 67.3689C67.5887 67.2957 67.6336 67.2297 67.6907 67.1752C67.7453 67.1193 67.8105 67.0748 67.8826 67.0445C67.9546 67.0142 68.0319 66.9986 68.1101 66.9986C68.1882 66.9986 68.2656 67.0142 68.3376 67.0445C68.4096 67.0748 68.4748 67.1193 68.5294 67.1752C68.6421 67.284 68.7075 67.4328 68.7113 67.5895C68.7128 67.6697 68.6984 67.7494 68.6689 67.8239C68.6394 67.8985 68.5955 67.9665 68.5395 68.024C68.4253 68.1336 68.2734 68.1951 68.1151 68.1958C68.0375 68.1944 67.9608 68.1776 67.8897 68.1464C67.8186 68.1152 67.7544 68.0701 67.7008 68.0139ZM17.4308 67.0034C17.3316 66.8924 17.2775 66.7482 17.2792 66.5992C17.2797 66.5166 17.2981 66.4349 17.3329 66.36C17.3678 66.285 17.4184 66.2184 17.4813 66.1647C17.5359 66.1088 17.6011 66.0644 17.6731 66.0341C17.7452 66.0037 17.8225 65.9881 17.9007 65.9881C17.9788 65.9881 18.0562 66.0037 18.1282 66.0341C18.2002 66.0644 18.2654 66.1088 18.32 66.1647C18.4192 66.2758 18.4733 66.42 18.4716 66.5689C18.471 66.6506 18.4537 66.7314 18.4207 66.8061C18.3877 66.8809 18.3396 66.948 18.2796 67.0034C18.1676 67.1024 18.0248 67.1595 17.8754 67.1651C17.794 67.1601 17.7145 67.1387 17.6416 67.1022C17.5687 67.0658 17.5038 67.015 17.451 66.9529L17.4308 67.0034ZM69.7217 65.8414C69.6549 65.786 69.6012 65.7165 69.5645 65.6379C69.5278 65.5593 69.509 65.4735 69.5095 65.3867C69.5062 65.2471 69.5528 65.111 69.6409 65.0027C69.7432 64.8802 69.8898 64.803 70.0487 64.7879C70.2076 64.7728 70.3661 64.8209 70.4897 64.9219C70.5568 64.9792 70.6105 65.0506 70.6471 65.1308C70.6838 65.2111 70.7025 65.2984 70.7019 65.3867C70.6992 65.5239 70.6492 65.6559 70.5604 65.7606C70.5061 65.8292 70.437 65.8849 70.3583 65.9233C70.2796 65.9618 70.1933 65.9821 70.1057 65.9829C69.9655 65.98 69.8303 65.9302 69.7217 65.8414ZM15.5311 64.6693C15.4538 64.5674 15.4113 64.4435 15.4099 64.3156C15.4121 64.2219 15.435 64.1298 15.4769 64.046C15.5188 63.9621 15.5788 63.8886 15.6524 63.8306C15.7787 63.7378 15.9365 63.6986 16.0916 63.7213C16.2466 63.7439 16.3865 63.8268 16.481 63.9519C16.5596 64.053 16.6023 64.1774 16.6022 64.3055C16.6019 64.3985 16.5809 64.4903 16.5407 64.5742C16.5005 64.6581 16.4421 64.732 16.3698 64.7905C16.2633 64.8662 16.1367 64.9084 16.0061 64.9118C15.9138 64.9095 15.8232 64.8865 15.741 64.8445C15.6588 64.8026 15.5871 64.7427 15.5311 64.6693ZM71.5608 63.5477C71.4791 63.4937 71.4123 63.42 71.3664 63.3335C71.3205 63.2471 71.297 63.1505 71.298 63.0525C71.3007 62.9328 71.3395 62.8166 71.4092 62.7191C71.4528 62.6537 71.5091 62.5978 71.5747 62.5546C71.6404 62.5114 71.7141 62.4818 71.7914 62.4677C71.8687 62.4536 71.948 62.4551 72.0247 62.4723C72.1014 62.4894 72.1738 62.5218 72.2378 62.5675C72.3157 62.6245 72.3792 62.699 72.4231 62.785C72.4669 62.871 72.49 62.9661 72.4904 63.0627C72.4913 63.1815 72.456 63.2978 72.3893 63.3961C72.3347 63.4771 72.2609 63.5435 72.1746 63.5893C72.0882 63.6351 71.992 63.659 71.8942 63.6588C71.7695 63.6459 71.6525 63.5927 71.5608 63.5072V63.5477ZM13.8235 62.1431C13.7558 62.0529 13.7202 61.9427 13.7224 61.8299C13.7246 61.729 13.7515 61.6301 13.8009 61.542C13.8502 61.4539 13.9204 61.3793 14.0054 61.3247C14.0714 61.2824 14.1452 61.2538 14.2225 61.2406C14.2997 61.2274 14.3788 61.2298 14.4552 61.2477C14.5315 61.2656 14.6034 61.2986 14.6667 61.3448C14.7301 61.391 14.7835 61.4495 14.8238 61.5167C14.8903 61.6113 14.9257 61.7243 14.9249 61.84C14.9219 61.9394 14.8946 62.0366 14.8453 62.1229C14.7959 62.2093 14.7261 62.2821 14.6419 62.3351C14.5476 62.393 14.4394 62.4244 14.3287 62.4261C14.2268 62.4288 14.1261 62.4039 14.0372 62.3541C13.9482 62.3043 13.8744 62.2314 13.8235 62.1431ZM73.1775 61.0215C73.0867 60.9692 73.0111 60.8942 72.958 60.8038C72.9048 60.7135 72.876 60.611 72.8744 60.5062C72.8712 60.4026 72.8994 60.3005 72.9552 60.2132C72.993 60.1435 73.0445 60.0821 73.1067 60.0329C73.1688 59.9837 73.2403 59.9476 73.3168 59.9268C73.3933 59.9061 73.4733 59.901 73.5518 59.912C73.6303 59.923 73.7058 59.9499 73.7737 59.9909C73.8625 60.0445 73.9361 60.1201 73.9875 60.2103C74.0388 60.3005 74.066 60.4024 74.0667 60.5062C74.0698 60.6098 74.0416 60.7119 73.9858 60.7992C73.9359 60.8921 73.8615 60.9695 73.7706 61.0229C73.6797 61.0764 73.5759 61.1038 73.4705 61.1024C73.3676 61.1007 73.2667 61.0729 73.1775 61.0215ZM12.328 59.5362C12.2809 59.453 12.2566 59.3589 12.2573 59.2634C12.2574 59.1531 12.2876 59.045 12.3445 58.9507C12.4015 58.8563 12.4831 58.7792 12.5806 58.7278C12.7229 58.6569 12.8873 58.6446 13.0385 58.6938C13.1897 58.7429 13.3156 58.8495 13.389 58.9905C13.428 59.0727 13.4487 59.1623 13.4496 59.2532C13.4506 59.3637 13.4209 59.4723 13.3638 59.5668C13.3067 59.6614 13.2245 59.7382 13.1263 59.7888C13.0431 59.8358 12.949 59.8602 12.8534 59.8595C12.7447 59.8587 12.6383 59.8281 12.5456 59.7711C12.453 59.7141 12.3778 59.6329 12.328 59.5362ZM74.5719 58.4146C74.4676 58.3644 74.3798 58.2854 74.3189 58.1869C74.258 58.0884 74.2266 57.9746 74.2284 57.8588C74.2316 57.7757 74.2487 57.6938 74.2789 57.6163C74.3488 57.4743 74.4708 57.3647 74.6194 57.3101C74.768 57.2555 74.9319 57.2603 75.0771 57.3233C75.1807 57.3717 75.2681 57.4489 75.329 57.5456C75.39 57.6424 75.4218 57.7546 75.4207 57.8689C75.4359 57.9524 75.4359 58.038 75.4207 58.1215C75.3703 58.2236 75.2927 58.3097 75.1964 58.3704C75.1001 58.431 74.9888 58.4638 74.875 58.4651C74.7716 58.4694 74.6684 58.4522 74.5719 58.4146ZM11.0548 56.7978C11.0403 56.7211 11.0403 56.6422 11.0548 56.5654C11.0576 56.4481 11.0944 56.334 11.1608 56.2371C11.2272 56.1403 11.3202 56.0648 11.4287 56.0198C11.575 55.9623 11.7379 55.9639 11.8831 56.0242C12.0282 56.0845 12.1443 56.1989 12.2067 56.3431C12.222 56.4199 12.222 56.4988 12.2067 56.5755C12.2061 56.6921 12.1713 56.8059 12.1066 56.9029C12.042 56.9999 11.9503 57.0758 11.843 57.1212C11.7662 57.1357 11.6874 57.1357 11.6106 57.1212C11.4969 57.1248 11.3846 57.0964 11.2863 57.0393C11.188 56.9821 11.1078 56.8984 11.0548 56.7978ZM75.7238 55.6863C75.6076 55.6445 75.5073 55.5675 75.4367 55.4662C75.3661 55.3648 75.3287 55.244 75.3298 55.1205C75.3207 55.0534 75.3207 54.9855 75.3298 54.9184C75.3865 54.7711 75.4985 54.6517 75.6419 54.5856C75.7853 54.5196 75.9488 54.5121 76.0977 54.5647C76.2131 54.6048 76.3131 54.6798 76.3838 54.7795C76.4544 54.8791 76.4922 54.9983 76.4918 55.1205C76.5051 55.1872 76.5051 55.2559 76.4918 55.3226C76.4518 55.438 76.3767 55.538 76.277 55.6087C76.1774 55.6793 76.0582 55.7171 75.936 55.7167C75.8845 55.7127 75.8336 55.7025 75.7845 55.6863H75.7238ZM10.0444 53.9585C10.0348 53.9016 10.0348 53.8435 10.0444 53.7867C10.0426 53.659 10.0819 53.5341 10.1565 53.4304C10.2311 53.3267 10.337 53.2497 10.4587 53.2107C10.6101 53.1662 10.7729 53.1824 10.9125 53.256C11.0522 53.3296 11.1576 53.4547 11.2064 53.6048C11.216 53.6651 11.216 53.7264 11.2064 53.7867C11.207 53.9144 11.1658 54.0387 11.0892 54.1409C11.0126 54.243 10.9047 54.3173 10.782 54.3525C10.7252 54.3622 10.6671 54.3622 10.6102 54.3525C10.4864 54.3551 10.3649 54.3183 10.2632 54.2475C10.1616 54.1767 10.0849 54.0755 10.0444 53.9585ZM76.6737 52.8672C76.5464 52.8337 76.4337 52.7591 76.3533 52.6549C76.2729 52.5507 76.2292 52.4228 76.2291 52.2912C76.2241 52.2408 76.2241 52.1901 76.2291 52.1397C76.2694 51.987 76.3687 51.8566 76.5051 51.777C76.6414 51.6974 76.8038 51.6752 76.9566 51.7153C77.0874 51.7472 77.2036 51.8225 77.2862 51.929C77.3688 52.0354 77.4128 52.1666 77.4113 52.3013C77.4151 52.3518 77.4151 52.4024 77.4113 52.4529C77.3745 52.5775 77.2987 52.6869 77.195 52.7651C77.0913 52.8434 76.9652 52.8862 76.8353 52.8874C76.7806 52.892 76.7255 52.8851 76.6737 52.8672ZM9.26633 51.0484C9.26132 51.0013 9.26132 50.9539 9.26633 50.9069C9.26804 50.7738 9.315 50.6453 9.39948 50.5424C9.48396 50.4396 9.60092 50.3686 9.73114 50.341C9.8852 50.308 10.0461 50.3373 10.1786 50.4225C10.3112 50.5077 10.4046 50.6419 10.4385 50.7958C10.4441 50.8394 10.4441 50.8835 10.4385 50.9271C10.4349 51.0623 10.3862 51.1925 10.3002 51.2969C10.2141 51.4012 10.0956 51.4738 9.96354 51.5031H9.85239C9.7177 51.5046 9.58646 51.4605 9.48003 51.378C9.37361 51.2954 9.29828 51.1792 9.26633 51.0484ZM77.3507 49.9874C77.2124 49.9636 77.0869 49.8918 76.9963 49.7846C76.9057 49.6774 76.8559 49.5417 76.8555 49.4013C76.8505 49.3644 76.8505 49.3271 76.8555 49.2902C76.8689 49.2136 76.8974 49.1404 76.9393 49.075C76.9812 49.0095 77.0357 48.953 77.0996 48.9088C77.1636 48.8646 77.2357 48.8336 77.3117 48.8175C77.3878 48.8015 77.4663 48.8007 77.5426 48.8153C77.681 48.8349 77.8075 48.9041 77.8986 49.0101C77.9897 49.116 78.0392 49.2515 78.0378 49.3912C78.0433 49.4281 78.0433 49.4655 78.0378 49.5024C78.0119 49.6388 77.9391 49.762 77.8322 49.8505C77.7252 49.9391 77.5906 49.9875 77.4517 49.9874H77.3507ZM8.751 48.0776C8.751 48.0776 8.751 48.0776 8.751 47.9968C8.75243 47.852 8.80655 47.7126 8.90325 47.6047C8.99995 47.4969 9.1326 47.4279 9.27644 47.4107C9.4332 47.3907 9.59151 47.4337 9.71656 47.5304C9.84161 47.627 9.92318 47.7693 9.94333 47.9261V47.9968C9.94691 48.1424 9.8961 48.2842 9.80082 48.3944C9.70555 48.5046 9.57263 48.5754 9.428 48.593H9.33706C9.19314 48.594 9.05386 48.5421 8.94578 48.447C8.8377 48.352 8.76837 48.2205 8.751 48.0776ZM77.7852 47.0672C77.635 47.0546 77.4949 46.9866 77.3922 46.8764C77.2894 46.7662 77.2314 46.6217 77.2294 46.471C77.2358 46.3926 77.2576 46.3163 77.2936 46.2463C77.3296 46.1764 77.3791 46.1143 77.4392 46.0636C77.4993 46.0129 77.5688 45.9745 77.6438 45.9508C77.7188 45.9271 77.7978 45.9184 77.8761 45.9254C78.0253 45.9381 78.1643 46.0064 78.2654 46.1169C78.3664 46.2273 78.4223 46.3718 78.4217 46.5215V46.4811C78.4068 46.6295 78.3378 46.7671 78.2278 46.8678C78.1179 46.9684 77.9746 47.025 77.8256 47.0268L77.7852 47.0672ZM8.48828 45.0463C8.4896 44.968 8.50632 44.8907 8.53751 44.8189C8.56869 44.7471 8.61372 44.6821 8.67002 44.6277C8.72632 44.5732 8.79279 44.5304 8.86563 44.5017C8.93847 44.473 9.01626 44.4589 9.09455 44.4602C9.25369 44.4547 9.40861 44.512 9.52583 44.6198C9.64305 44.7276 9.71317 44.8771 9.72103 45.0362C9.72106 45.1899 9.6607 45.3374 9.55297 45.447C9.44524 45.5567 9.29875 45.6196 9.14508 45.6222H9.09455C8.94308 45.6253 8.79611 45.5707 8.6835 45.4693C8.57089 45.368 8.50109 45.2276 8.48828 45.0766V45.0463ZM77.3608 43.47V43.4498V43.379C77.3607 43.22 77.4232 43.0673 77.5348 42.9539C77.6463 42.8405 77.7979 42.7754 77.9569 42.7728C78.1142 42.7754 78.2644 42.839 78.3756 42.9502C78.4869 43.0615 78.5505 43.2116 78.5531 43.3689C78.558 43.3922 78.558 43.4163 78.5531 43.4397C78.5587 43.4629 78.5587 43.4871 78.5531 43.5104C78.5505 43.6677 78.4869 43.8178 78.3756 43.9291C78.2644 44.0403 78.1142 44.104 77.9569 44.1066C77.8778 44.1066 77.7994 44.0908 77.7264 44.0602C77.6534 44.0296 77.5873 43.9848 77.5318 43.9284C77.4763 43.8719 77.4326 43.805 77.4032 43.7315C77.3738 43.658 77.3594 43.5794 77.3608 43.5003V43.47ZM9.09455 42.6818C8.9417 42.6767 8.79668 42.6129 8.68948 42.5039C8.58228 42.3948 8.5211 42.2487 8.5186 42.0958C8.5184 41.9401 8.5781 41.7903 8.68532 41.6774C8.79254 41.5646 8.93907 41.4973 9.09455 41.4895C9.24823 41.4921 9.39471 41.555 9.50245 41.6647C9.61018 41.7743 9.67053 41.9218 9.67051 42.0755C9.66527 42.2301 9.60015 42.3766 9.48891 42.4841C9.37767 42.5916 9.22902 42.6516 9.07434 42.6515H9.09455V42.6818ZM77.2193 40.4184C77.218 40.3401 77.2321 40.2623 77.2608 40.1895C77.2895 40.1166 77.3323 40.0502 77.3867 39.9939C77.4412 39.9376 77.5061 39.8925 77.578 39.8614C77.6498 39.8302 77.7271 39.8134 77.8054 39.8121C77.962 39.798 78.1179 39.8464 78.239 39.9467C78.3601 40.047 78.4367 40.1912 78.452 40.3477C78.4576 40.4988 78.4034 40.646 78.3013 40.7575C78.1993 40.8691 78.0574 40.936 77.9064 40.9438C77.8267 40.9552 77.7455 40.9505 77.6676 40.9302C77.5897 40.9098 77.5166 40.8741 77.4527 40.8252C77.3887 40.7763 77.3351 40.7151 77.2951 40.6453C77.255 40.5754 77.2292 40.4983 77.2193 40.4184ZM9.24612 39.7212C9.10325 39.7038 8.97176 39.6345 8.87672 39.5264C8.78168 39.4183 8.72974 39.279 8.73079 39.1351V39.0543C8.75094 38.8975 8.83251 38.7552 8.95757 38.6586C9.08262 38.5619 9.24093 38.5189 9.39769 38.539C9.54325 38.5563 9.6773 38.6268 9.77422 38.7367C9.87115 38.8467 9.92416 38.9885 9.92312 39.1351C9.92312 39.1351 9.92312 39.1856 9.92312 39.2059C9.90595 39.3497 9.83699 39.4823 9.72913 39.579C9.62128 39.6757 9.48191 39.7299 9.33706 39.7313H9.24612V39.7212ZM76.7949 37.5689V37.4679C76.7928 37.3285 76.8405 37.1929 76.9294 37.0855C77.0183 36.978 77.1426 36.9058 77.2799 36.8818C77.3576 36.8673 77.4374 36.8683 77.5147 36.8849C77.592 36.9015 77.6652 36.9333 77.73 36.9784C77.7949 37.0235 77.8502 37.0811 77.8926 37.1478C77.935 37.2145 77.9638 37.2889 77.9771 37.3668C77.9771 37.3668 77.9771 37.4376 77.9771 37.4679C77.9748 37.6077 77.9243 37.7424 77.8341 37.8492C77.7438 37.956 77.6195 38.0283 77.482 38.0539H77.381C77.2431 38.0503 77.1104 38.0006 77.0042 37.9126C76.8979 37.8247 76.8243 37.7037 76.7949 37.5689ZM9.69072 36.801C9.55718 36.7689 9.43846 36.6925 9.35402 36.5842C9.26958 36.4759 9.22441 36.3421 9.22591 36.2048C9.22132 36.1645 9.22132 36.1238 9.22591 36.0836C9.25979 35.9297 9.35321 35.7955 9.48575 35.7103C9.61829 35.6251 9.77917 35.5958 9.93323 35.6289C10.067 35.6585 10.1867 35.7326 10.2729 35.839C10.3592 35.9455 10.4068 36.0779 10.4081 36.2149C10.4081 36.2149 10.4081 36.2958 10.4081 36.3362C10.3785 36.4699 10.3044 36.5896 10.198 36.6759C10.0915 36.7621 9.95905 36.8098 9.82208 36.8111H9.69072V36.801ZM76.2088 34.7295C76.2039 34.6791 76.2039 34.6284 76.2088 34.578C76.209 34.4464 76.2527 34.3185 76.3331 34.2143C76.4135 34.1101 76.5262 34.0355 76.6535 34.002C76.7284 33.9806 76.8069 33.9744 76.8843 33.9837C76.9617 33.9931 77.0365 34.0177 77.1042 34.0563C77.172 34.0949 77.2314 34.1466 77.2789 34.2084C77.3264 34.2702 77.3611 34.3409 77.381 34.4163C77.3859 34.4667 77.3859 34.5175 77.381 34.5679C77.3849 34.7016 77.343 34.8327 77.2621 34.9394C77.1812 35.046 77.0663 35.1217 76.9364 35.1539H76.7949C76.6646 35.1556 76.5372 35.1152 76.4316 35.0388C76.3261 34.9623 76.2479 34.8539 76.2088 34.7295ZM10.3879 33.9212C10.2671 33.8809 10.1621 33.8035 10.0877 33.7001C10.0134 33.5968 9.97346 33.4726 9.97365 33.3452C9.96868 33.2847 9.96868 33.2239 9.97365 33.1633C9.9967 33.0883 10.0344 33.0185 10.0845 32.958C10.1346 32.8975 10.1961 32.8475 10.2656 32.8109C10.3351 32.7743 10.4111 32.7517 10.4893 32.7446C10.5676 32.7375 10.6464 32.7458 10.7214 32.7693C10.8441 32.8045 10.952 32.8788 11.0286 32.981C11.1052 33.0831 11.1463 33.2075 11.1458 33.3351C11.1554 33.3954 11.1554 33.4568 11.1458 33.517C11.1073 33.637 11.0319 33.7417 10.9302 33.8162C10.8285 33.8906 10.7059 33.9309 10.5799 33.9313L10.3879 33.9212ZM75.3399 31.9508C75.3265 31.8841 75.3265 31.8154 75.3399 31.7487C75.343 31.6262 75.382 31.5073 75.452 31.4067C75.5221 31.3061 75.6201 31.2283 75.7339 31.1829C75.8841 31.1307 76.0487 31.1397 76.1923 31.2077C76.3359 31.2757 76.4471 31.3974 76.5019 31.5466C76.5125 31.6136 76.5125 31.6818 76.5019 31.7487C76.5008 31.8705 76.4625 31.9891 76.392 32.0884C76.3216 32.1878 76.2224 32.2632 76.1078 32.3045C76.0413 32.3196 75.9722 32.3196 75.9057 32.3045C75.7869 32.3087 75.6695 32.2772 75.5687 32.2142C75.4678 32.1512 75.3882 32.0595 75.3399 31.9508ZM11.3378 31.1121C11.2269 31.0647 11.1325 30.9858 11.066 30.8852C10.9996 30.7847 10.9641 30.6668 10.9639 30.5463C10.9715 30.4671 10.9885 30.3891 11.0144 30.3139C11.0433 30.242 11.0861 30.1765 11.1404 30.1212C11.1947 30.066 11.2595 30.022 11.3309 29.9919C11.4023 29.9619 11.479 29.9463 11.5565 29.946C11.634 29.9458 11.7108 29.9609 11.7824 29.9905C11.894 30.0339 11.9897 30.1104 12.0565 30.2097C12.1234 30.3091 12.1582 30.4265 12.1562 30.5463C12.1715 30.6196 12.1715 30.6953 12.1562 30.7686C12.1117 30.8794 12.0349 30.9743 11.9358 31.0409C11.8367 31.1076 11.7199 31.143 11.6005 31.1424C11.5119 31.146 11.4232 31.1357 11.3378 31.1121ZM74.2284 29.3034C74.2094 29.2237 74.2094 29.1406 74.2284 29.0609C74.224 28.9446 74.2543 28.8297 74.3155 28.7307C74.3767 28.6317 74.466 28.5532 74.5719 28.5052C74.7157 28.4426 74.8781 28.4382 75.025 28.4928C75.172 28.5475 75.2921 28.6569 75.3601 28.7982C75.3991 28.8731 75.4199 28.9562 75.4207 29.0407C75.4203 29.1573 75.3869 29.2714 75.3243 29.3698C75.2617 29.4682 75.1725 29.5468 75.067 29.5964C74.9899 29.6276 74.9077 29.6447 74.8245 29.647C74.7016 29.6599 74.5778 29.6336 74.4707 29.5719C74.3636 29.5102 74.2788 29.4162 74.2284 29.3034ZM12.5301 28.394C12.4314 28.3431 12.3484 28.2664 12.2897 28.1721C12.231 28.0779 12.1988 27.9695 12.1966 27.8585C12.2011 27.7636 12.2252 27.6707 12.2674 27.5856C12.3015 27.5151 12.3497 27.4522 12.409 27.4009C12.4682 27.3497 12.5373 27.311 12.6121 27.2874C12.6868 27.2637 12.7656 27.2556 12.8436 27.2634C12.9216 27.2713 12.9971 27.295 13.0656 27.333C13.1631 27.3819 13.2449 27.4569 13.302 27.5498C13.3592 27.6426 13.3893 27.7495 13.389 27.8585C13.3883 27.9527 13.3676 28.0457 13.3284 28.1313C13.2761 28.2281 13.1988 28.3091 13.1047 28.366C13.0105 28.4228 12.9028 28.4534 12.7928 28.4546C12.7017 28.4551 12.6118 28.4344 12.5301 28.394ZM72.8845 26.6762C72.8362 26.5862 72.8118 26.4853 72.8137 26.3832C72.8116 26.2775 72.8376 26.1731 72.8891 26.0808C72.9406 25.9885 73.0157 25.9115 73.1068 25.8578C73.2457 25.783 73.408 25.7644 73.5603 25.8058C73.7126 25.8471 73.8432 25.9453 73.9252 26.0801C73.9755 26.1734 74.0032 26.2772 74.0061 26.3832C74.0044 26.488 73.9756 26.5905 73.9224 26.6808C73.8693 26.7712 73.7937 26.8462 73.7029 26.8985C73.6137 26.9499 73.5128 26.9778 73.4099 26.9794C73.3034 26.9794 73.1988 26.9515 73.1065 26.8982C73.0143 26.845 72.9377 26.7685 72.8845 26.6762ZM13.9346 25.787C13.8488 25.7317 13.7787 25.6552 13.7309 25.565C13.6831 25.4748 13.6593 25.3738 13.6618 25.2717C13.6624 25.1609 13.6939 25.0524 13.7527 24.9585C13.8361 24.8248 13.969 24.7296 14.1224 24.6937C14.2757 24.6577 14.4371 24.6839 14.5712 24.7665C14.6576 24.822 14.7287 24.8983 14.7781 24.9882C14.8275 25.0782 14.8536 25.1791 14.8541 25.2818C14.8552 25.3929 14.8236 25.5018 14.7632 25.5951C14.71 25.6813 14.6356 25.7525 14.5472 25.802C14.4588 25.8515 14.3593 25.8776 14.258 25.878C14.1439 25.8777 14.0321 25.8462 13.9346 25.787ZM71.3385 24.2512C71.2641 24.1484 71.2251 24.0243 71.2273 23.8975C71.2288 23.8015 71.2535 23.7072 71.2992 23.6228C71.3449 23.5383 71.4104 23.4662 71.49 23.4125C71.6201 23.3228 71.7803 23.2885 71.9357 23.3169C72.091 23.3453 72.2287 23.4342 72.3186 23.564C72.3853 23.6624 72.4205 23.7787 72.4196 23.8975C72.4201 23.9942 72.3974 24.0896 72.3534 24.1757C72.3095 24.2618 72.2456 24.3362 72.167 24.3926C72.0651 24.461 71.9461 24.4995 71.8235 24.5038C71.7282 24.5043 71.6342 24.4815 71.5497 24.4375C71.4652 24.3935 71.3927 24.3295 71.3385 24.2512ZM15.5716 23.3417C15.5 23.2848 15.442 23.2126 15.4018 23.1305C15.3617 23.0483 15.3402 22.9583 15.3392 22.8668C15.3401 22.7374 15.3787 22.611 15.4503 22.5031C15.4979 22.4405 15.5574 22.3879 15.6254 22.3484C15.6934 22.3089 15.7686 22.2833 15.8465 22.273C15.9245 22.2626 16.0037 22.2678 16.0796 22.2882C16.1556 22.3086 16.2267 22.3439 16.289 22.3919C16.3622 22.4473 16.4214 22.5192 16.4618 22.6017C16.5022 22.6842 16.5226 22.775 16.5214 22.8668C16.5251 22.9939 16.4859 23.1184 16.4102 23.2205C16.3553 23.295 16.2838 23.3557 16.2014 23.3978C16.119 23.4399 16.0279 23.4622 15.9353 23.463C15.8006 23.4544 15.6726 23.4011 15.5716 23.3114V23.3417ZM69.5702 21.9271C69.4821 21.8188 69.4355 21.6827 69.4388 21.5431C69.4383 21.4564 69.4571 21.3706 69.4938 21.2919C69.5305 21.2133 69.5842 21.1438 69.651 21.0884C69.773 20.988 69.9298 20.9402 70.0871 20.9553C70.2443 20.9705 70.3891 21.0474 70.4897 21.1693C70.5785 21.2739 70.6284 21.406 70.6311 21.5431C70.632 21.6324 70.6123 21.7207 70.5738 21.8013C70.5353 21.8818 70.4789 21.9525 70.4088 22.0079C70.3033 22.0938 70.1711 22.1403 70.035 22.1393C69.9441 22.137 69.855 22.1139 69.7745 22.0719C69.6939 22.0299 69.624 21.97 69.5702 21.8968V21.9271ZM17.4106 21.0177C17.3484 20.9613 17.2984 20.8927 17.2636 20.8163C17.2289 20.7398 17.2101 20.6571 17.2085 20.5731C17.2076 20.4999 17.2215 20.4273 17.2493 20.3596C17.2771 20.2919 17.3182 20.2305 17.3702 20.179C17.4213 20.1197 17.4838 20.0712 17.554 20.0365C17.6242 20.0017 17.7006 19.9814 17.7788 19.9767C17.857 19.972 17.9354 19.983 18.0092 20.009C18.0831 20.0351 18.1509 20.0757 18.2088 20.1285C18.2702 20.1851 18.3189 20.2538 18.352 20.3304C18.3851 20.407 18.4017 20.4897 18.4008 20.5731C18.4055 20.645 18.3954 20.7171 18.371 20.7848C18.3467 20.8526 18.3087 20.9147 18.2594 20.9672C18.2018 21.0306 18.1316 21.0814 18.0533 21.1161C17.975 21.1509 17.8903 21.169 17.8047 21.1693C17.6558 21.1575 17.5161 21.093 17.4106 20.9874V21.0177ZM67.62 19.7748C67.5634 19.72 67.5189 19.6539 67.4893 19.5808C67.4597 19.5077 67.4457 19.4293 67.4482 19.3505C67.4489 19.1922 67.5104 19.0402 67.62 18.9261C67.7333 18.815 67.8857 18.7528 68.0444 18.7528C68.2031 18.7528 68.3554 18.815 68.4688 18.9261C68.5767 19.0413 68.6379 19.1926 68.6406 19.3505C68.6342 19.5095 68.5695 19.6606 68.4587 19.7748C68.3488 19.8848 68.1998 19.9466 68.0444 19.9466C67.8818 19.938 67.7292 19.8653 67.62 19.7445V19.7748ZM19.4416 18.8553C19.3369 18.7469 19.2789 18.6018 19.2799 18.4512C19.2804 18.3694 19.2977 18.2887 19.3308 18.214C19.3638 18.1392 19.4118 18.0721 19.4719 18.0167C19.5835 17.9062 19.7342 17.8442 19.8912 17.8442C20.0483 17.8442 20.199 17.9062 20.3106 18.0167C20.4159 18.1287 20.4738 18.2772 20.4723 18.4309C20.4725 18.5118 20.4565 18.592 20.4252 18.6666C20.394 18.7412 20.3481 18.8088 20.2904 18.8654C20.1757 18.9666 20.029 19.0239 19.8761 19.0271C19.7936 19.0253 19.7124 19.0064 19.6376 18.9716C19.5629 18.9369 19.4961 18.8869 19.4416 18.825V18.8553ZM65.4879 17.7843C65.4211 17.7289 65.3674 17.6594 65.3307 17.5808C65.294 17.5021 65.2752 17.4163 65.2757 17.3295C65.2771 17.1872 65.3311 17.0504 65.4273 16.9456C65.5293 16.8252 65.6748 16.7502 65.832 16.7369C65.9892 16.7237 66.1453 16.7733 66.266 16.8748C66.3294 16.9324 66.3802 17.0026 66.415 17.0809C66.4497 17.1592 66.4678 17.2439 66.4681 17.3295C66.4705 17.4707 66.42 17.6077 66.3266 17.7135C66.2713 17.7803 66.2018 17.834 66.1231 17.8707C66.0445 17.9074 65.9587 17.9262 65.8719 17.9257C65.728 17.9144 65.5923 17.8537 65.4879 17.7539V17.7843ZM21.6545 16.8849C21.5686 16.7794 21.5222 16.6472 21.5231 16.5111C21.5245 16.4222 21.545 16.3346 21.5834 16.2543C21.6218 16.1741 21.677 16.1031 21.7454 16.0463C21.8716 15.9476 22.0316 15.9028 22.1907 15.9218C22.3497 15.9407 22.4948 16.0218 22.5942 16.1473C22.6743 16.2515 22.717 16.3797 22.7155 16.5111C22.7148 16.6001 22.6946 16.6879 22.6561 16.7683C22.6177 16.8486 22.5621 16.9195 22.4932 16.9759C22.3876 17.0618 22.2554 17.1082 22.1193 17.1073C22.0278 17.103 21.9384 17.0781 21.8579 17.0343C21.7774 16.9906 21.7078 16.9291 21.6545 16.8546V16.8849ZM63.1942 15.9856C63.1164 15.9316 63.0534 15.8588 63.0111 15.7741C62.9687 15.6893 62.9483 15.5953 62.9517 15.5006C62.9494 15.3785 62.9847 15.2585 63.0527 15.1571C63.0981 15.0922 63.1559 15.0369 63.2228 14.9946C63.2897 14.9522 63.3643 14.9236 63.4424 14.9105C63.5205 14.8973 63.6004 14.8998 63.6775 14.9179C63.7546 14.9359 63.8273 14.9692 63.8914 15.0156C63.97 15.072 64.0339 15.1464 64.0778 15.2325C64.1218 15.3187 64.1445 15.414 64.144 15.5107C64.1326 15.6304 64.0909 15.7451 64.0228 15.8442C63.9699 15.9238 63.8976 15.9888 63.8128 16.033C63.728 16.0771 63.6334 16.0991 63.5378 16.0968C63.41 16.0922 63.2882 16.042 63.1942 15.9553V15.9856ZM24.1907 14.2477C24.3252 14.1636 24.4872 14.1356 24.6421 14.1696C24.797 14.2036 24.9324 14.2969 25.0193 14.4296C25.0828 14.5294 25.1178 14.6447 25.1203 14.763C25.1169 14.8598 25.0903 14.9543 25.0429 15.0387C24.9954 15.123 24.9284 15.1948 24.8475 15.248C24.7529 15.3145 24.6398 15.3499 24.5242 15.3491C24.4236 15.3508 24.3243 15.3265 24.2359 15.2788C24.1474 15.231 24.0727 15.1612 24.0189 15.0762C23.9552 14.9802 23.9202 14.8681 23.9179 14.7529C23.9214 14.6548 23.9479 14.5588 23.9953 14.4728C24.0427 14.3868 24.1096 14.3131 24.1907 14.2578V14.2477ZM60.759 14.3689C60.6689 14.3193 60.5939 14.2461 60.5423 14.157C60.4906 14.068 60.4643 13.9666 60.466 13.8637C60.4638 13.7571 60.4918 13.652 60.5468 13.5606C60.5865 13.4927 60.6391 13.4334 60.7018 13.386C60.7645 13.3385 60.8359 13.304 60.9119 13.2843C60.988 13.2645 61.0672 13.2601 61.145 13.2711C61.2228 13.2821 61.2977 13.3083 61.3653 13.3484C61.454 13.3996 61.5278 13.4732 61.5792 13.5619C61.6306 13.6505 61.6579 13.7511 61.6583 13.8536C61.6577 13.9644 61.6262 14.0729 61.5674 14.1668C61.5178 14.257 61.4445 14.3319 61.3555 14.3836C61.2665 14.4352 61.1651 14.4616 61.0622 14.4599C60.9534 14.4566 60.848 14.4214 60.759 14.3588V14.3689ZM26.535 13.51C26.4879 13.4232 26.4636 13.3259 26.4642 13.2271C26.4642 13.1206 26.4922 13.016 26.5454 12.9238C26.5986 12.8315 26.6752 12.7549 26.7674 12.7017C26.8364 12.6644 26.912 12.6412 26.99 12.6332C27.068 12.6253 27.1468 12.6327 27.2219 12.6553C27.2969 12.6778 27.3668 12.7149 27.4276 12.7645C27.4883 12.8141 27.5386 12.8751 27.5757 12.9442C27.6255 13.0304 27.6533 13.1276 27.6566 13.2271C27.6567 13.3348 27.6276 13.4406 27.5725 13.5331C27.5173 13.6256 27.4381 13.7014 27.3433 13.7525C27.257 13.8009 27.1593 13.8253 27.0604 13.8233C26.9517 13.8224 26.8452 13.7919 26.7526 13.7349C26.66 13.6779 26.5847 13.5966 26.535 13.4999V13.51ZM58.1925 12.9947C58.0897 12.948 58.0026 12.8726 57.9417 12.7776C57.8807 12.6826 57.8485 12.572 57.8489 12.4592C57.8496 12.3714 57.8704 12.285 57.9095 12.2066C57.9431 12.1353 57.9904 12.0714 58.0488 12.0186C58.1072 11.9658 58.1755 11.925 58.2497 11.8987C58.3239 11.8724 58.4026 11.8611 58.4812 11.8653C58.5599 11.8696 58.6369 11.8894 58.7078 11.9236C58.8087 11.9718 58.8937 12.0478 58.9527 12.1427C59.0118 12.2376 59.0425 12.3474 59.0412 12.4592C59.0417 12.5503 59.021 12.6402 58.9806 12.7219C58.9324 12.8228 58.8564 12.9077 58.7615 12.9668C58.6667 13.0259 58.5569 13.0566 58.4451 13.0553C58.3566 13.0515 58.2701 13.0273 58.1925 12.9846V12.9947ZM29.1723 12.1257C29.1351 12.0505 29.1178 11.967 29.1217 11.8832C29.1235 11.7695 29.1577 11.6587 29.2204 11.5638C29.283 11.4689 29.3715 11.3939 29.4754 11.3477C29.6204 11.2858 29.7838 11.2829 29.9309 11.3395C30.0781 11.396 30.1974 11.5077 30.2635 11.6508C30.2994 11.7229 30.3168 11.8027 30.3141 11.8832C30.3162 12.0003 30.2839 12.1155 30.221 12.2144C30.1581 12.3132 30.0674 12.3913 29.9604 12.439C29.8848 12.4749 29.8016 12.4922 29.7179 12.4895C29.601 12.4902 29.4867 12.4559 29.3894 12.3911C29.2922 12.3262 29.2166 12.2338 29.1723 12.1257ZM55.5148 11.8125C55.4012 11.7708 55.3034 11.695 55.2347 11.5955C55.1659 11.496 55.1296 11.3777 55.1308 11.2567C55.1164 11.1867 55.1164 11.1145 55.1308 11.0445C55.1874 10.8974 55.2999 10.7786 55.4438 10.7142C55.5878 10.6498 55.7513 10.6451 55.8987 10.701C56.0115 10.7469 56.1081 10.8251 56.1764 10.9258C56.2447 11.0265 56.2817 11.1451 56.2827 11.2668C56.2865 11.3341 56.2865 11.4016 56.2827 11.4689C56.238 11.5824 56.16 11.6798 56.0591 11.7483C55.9581 11.8168 55.8389 11.8533 55.7169 11.8529C55.6488 11.8596 55.5801 11.8528 55.5148 11.8327V11.8125ZM31.9106 11.0142C31.9049 10.9503 31.9049 10.8861 31.9106 10.8222C31.9131 10.698 31.9544 10.5776 32.0287 10.478C32.1029 10.3783 32.2065 10.3044 32.3249 10.2665C32.3978 10.241 32.4751 10.2302 32.5523 10.2347C32.6294 10.2392 32.7049 10.259 32.7744 10.2928C32.8439 10.3266 32.906 10.3738 32.9572 10.4317C33.0084 10.4897 33.0476 10.5571 33.0726 10.6302C33.0821 10.6973 33.0821 10.7653 33.0726 10.8323C33.0701 10.9566 33.0288 11.077 32.9545 11.1766C32.8803 11.2763 32.7767 11.3502 32.6583 11.3881C32.5985 11.4023 32.5362 11.4023 32.4764 11.3881C32.3581 11.3897 32.2419 11.3572 32.1415 11.2945C32.0412 11.2317 31.961 11.1415 31.9106 11.0344V11.0142ZM52.7461 10.9031C52.6217 10.8674 52.5126 10.7915 52.4359 10.6874C52.3591 10.5832 52.319 10.4565 52.3217 10.3271C52.3125 10.2736 52.3125 10.2189 52.3217 10.1654C52.3413 10.0891 52.3764 10.0175 52.4247 9.95522C52.4731 9.89294 52.5337 9.84125 52.6029 9.80336C52.672 9.76547 52.7482 9.74218 52.8268 9.73494C52.9053 9.72769 52.9845 9.73665 53.0594 9.76126C53.1831 9.79611 53.2923 9.87004 53.3706 9.97202C53.4489 10.074 53.4921 10.1986 53.4939 10.3271C53.4987 10.3809 53.4987 10.435 53.4939 10.4888C53.459 10.6125 53.3851 10.7217 53.2831 10.8C53.1811 10.8783 53.0566 10.9216 52.928 10.9233C52.8679 10.9343 52.8063 10.9343 52.7461 10.9233V10.9031ZM34.75 10.1452C34.745 10.0948 34.745 10.0441 34.75 9.99366C34.754 9.8616 34.8004 9.73434 34.8823 9.63064C34.9641 9.52694 35.0772 9.4523 35.2047 9.4177C35.281 9.3997 35.3601 9.39693 35.4374 9.40954C35.5148 9.42215 35.589 9.4499 35.6556 9.49119C35.7222 9.53249 35.7801 9.58653 35.8258 9.65021C35.8715 9.71389 35.9042 9.78596 35.9221 9.8623C35.9269 9.90596 35.9269 9.95001 35.9221 9.99366C35.9219 10.1279 35.8771 10.2583 35.7948 10.3643C35.7125 10.4704 35.5974 10.5462 35.4674 10.5797H35.3259C35.1978 10.5831 35.0721 10.5445 34.9681 10.4696C34.8641 10.3948 34.7875 10.288 34.75 10.1654V10.1452ZM49.9068 10.2261C49.772 10.2005 49.6502 10.1293 49.5618 10.0243C49.4735 9.91943 49.424 9.78725 49.4217 9.65011C49.4217 9.65011 49.4217 9.56927 49.4217 9.52885C49.4395 9.45274 49.4722 9.38094 49.5181 9.31768C49.564 9.25442 49.6221 9.20097 49.6889 9.16049C49.7558 9.12 49.83 9.0933 49.9074 9.08194C49.9847 9.07058 50.0635 9.07481 50.1392 9.09436C50.2774 9.1164 50.4029 9.18806 50.4922 9.29592C50.5815 9.40378 50.6284 9.54047 50.6242 9.68042C50.6242 9.68042 50.6242 9.75115 50.6242 9.79157C50.598 9.92706 50.5249 10.049 50.4177 10.1358C50.3105 10.2227 50.1761 10.269 50.0381 10.2665H49.9169L49.9068 10.2261ZM37.6298 9.51875V9.44802C37.6284 9.30563 37.6789 9.16761 37.7719 9.05975C37.8649 8.9519 37.9939 8.88159 38.135 8.86195C38.2903 8.83868 38.4485 8.87762 38.5753 8.97033C38.702 9.06303 38.7871 9.20201 38.812 9.35708C38.812 9.35708 38.812 9.4177 38.812 9.44802C38.8112 9.58983 38.76 9.72674 38.6674 9.83415C38.5748 9.94156 38.4469 10.0124 38.3068 10.0341H38.2158C38.0778 10.0295 37.9454 9.97792 37.8407 9.88789C37.736 9.79785 37.6651 9.67475 37.6399 9.53896L37.6298 9.51875ZM47.027 9.80168C46.8829 9.78958 46.7481 9.72552 46.6477 9.62142C46.5473 9.51732 46.4882 9.38028 46.4813 9.23582V9.16509C46.4991 9.00847 46.5782 8.86527 46.7013 8.7668C46.8243 8.66833 46.9814 8.62262 47.1381 8.63965C47.2846 8.65686 47.4198 8.72689 47.5184 8.83664C47.617 8.94638 47.6722 9.08831 47.6737 9.23582V9.29645C47.6564 9.44296 47.5864 9.57818 47.4767 9.67676C47.3669 9.77535 47.225 9.83054 47.0775 9.83199H47.0169L47.027 9.80168ZM40.5702 9.14488V9.09436C40.5724 8.94475 40.6307 8.80145 40.7337 8.69288C40.8366 8.58431 40.9766 8.51842 41.1259 8.5083C41.2042 8.5028 41.2829 8.51284 41.3573 8.53783C41.4318 8.56281 41.5005 8.60226 41.5597 8.6539C41.6188 8.70554 41.6672 8.76836 41.702 8.83874C41.7368 8.90913 41.7574 8.98569 41.7625 9.06404V9.09436C41.7603 9.24396 41.7019 9.38727 41.599 9.49584C41.496 9.60441 41.356 9.67029 41.2067 9.68042C41.0566 9.68942 40.9085 9.64131 40.7924 9.54574C40.6762 9.45016 40.6004 9.31419 40.5803 9.16509L40.5702 9.14488ZM44.1169 9.6299C43.9733 9.62547 43.8364 9.56849 43.7321 9.46977C43.6277 9.37104 43.5633 9.23745 43.551 9.09436C43.5536 8.938 43.6176 8.78895 43.7292 8.67932C43.8407 8.56969 43.9908 8.50827 44.1472 8.5083C44.3045 8.5109 44.4546 8.57454 44.5658 8.68579C44.6771 8.79703 44.7407 8.94716 44.7433 9.10446C44.7407 9.25908 44.6782 9.40665 44.5688 9.516C44.4595 9.62535 44.3119 9.68793 44.1573 9.69053L44.1169 9.6299Z" fill="url(#paint3_linear)"/>
<path fill-rule="evenodd" clip-rule="evenodd" d="M46.5819 60.385V50.523L45.9554 51.1494L46.5819 50.523V44.7937H41.752V65.6798C42.5643 65.7647 43.3805 65.8085 44.1972 65.8111C44.994 65.8135 45.7902 65.7697 46.5819 65.6798V60.385Z" fill="#EEEEEE"/>
<path fill-rule="evenodd" clip-rule="evenodd" d="M54.4944 56.6363V42.0554H49.6543V64.9523C51.3389 64.5135 52.9641 63.8723 54.4944 63.0425V56.6363Z" fill="#EEEEEE"/>
<path fill-rule="evenodd" clip-rule="evenodd" d="M59.7886 37.3871V37.4477C59.8795 37.7003 59.9705 37.9529 60.0513 38.2055L64.9116 36.2857C64.5899 35.3154 64.1982 34.3698 63.7394 33.4564L59.7886 37.3871ZM22.0684 43.2477C22.0732 47.2571 23.1732 51.189 25.2496 54.6188C27.326 58.0486 30.2999 60.8461 33.8502 62.709C35.3843 63.508 37.0048 64.1284 38.6802 64.5581V47.4916H33.9412L33.8502 48.5829V56.4947C31.7838 54.913 30.1137 52.8722 28.9721 50.5337C27.8305 48.1952 27.2486 45.6231 27.2725 43.0209C27.2965 40.4187 27.9255 37.8578 29.11 35.5407C30.2944 33.2235 32.0018 31.2138 34.0969 29.6704C36.1921 28.1269 38.6177 27.0921 41.1818 26.6479C43.7459 26.2036 46.3782 26.362 48.8705 27.1106C51.3628 27.8592 53.6467 29.1774 55.5417 30.961C57.4366 32.7446 58.8906 34.9446 59.7886 37.3871L63.7495 33.4261C61.5365 28.9904 57.8901 25.4323 53.4016 23.3286C48.9131 21.2248 43.8456 20.6988 39.0207 21.8357C34.1958 22.9726 29.8963 25.7059 26.8193 29.5923C23.7423 33.4788 22.0682 38.2906 22.0684 43.2477Z" fill="#EEEEEE"/>
</g>
<defs>
<linearGradient id="paint0_linear" x1="11.5596" y1="11.5599" x2="70.0446" y2="70.0449" gradientUnits="userSpaceOnUse">
<stop stop-color="#002044"/>
<stop offset="0.47" stop-color="#002044"/>
<stop offset="0.84" stop-color="#002044"/>
<stop offset="1" stop-color="#002044"/>
</linearGradient>
<linearGradient id="paint1_linear" x1="16.7034" y1="70.2974" x2="71.4295" y2="15.5713" gradientUnits="userSpaceOnUse">
<stop offset="0.28" stop-color="#009649"/>
<stop offset="1" stop-color="#009649"/>
</linearGradient>
<linearGradient id="paint2_linear" x1="15.6813" y1="15.6825" x2="66.6183" y2="66.6194" gradientUnits="userSpaceOnUse">
<stop offset="0.2" stop-color="#002044"/>
<stop offset="1" stop-color="#002044"/>
</linearGradient>
<linearGradient id="paint3_linear" x1="18.7343" y1="18.724" x2="70.1663" y2="70.156" gradientUnits="userSpaceOnUse">
<stop stop-color="#B0772A"/>
<stop offset="0.09" stop-color="#DFB863"/>
<stop offset="0.14" stop-color="#F5D77F"/>
<stop offset="0.26" stop-color="#FCFAD9"/>
<stop offset="0.36" stop-color="#F5D77F"/>
<stop offset="0.49" stop-color="#B0772A"/>
<stop offset="0.57" stop-color="#DFB863"/>
<stop offset="0.61" stop-color="#F5D77F"/>
<stop offset="0.74" stop-color="#FCFAD9"/>
<stop offset="0.84" stop-color="#F5D77F"/>
<stop offset="1" stop-color="#B0772A"/>
</linearGradient>
<clipPath id="clip0">
<rect width="87" height="87" fill="white"/>
</clipPath>
</defs>
</svg>
