<svg width="56" height="56" viewBox="0 0 56 56" fill="none" xmlns="http://www.w3.org/2000/svg">
<path d="M20.3227 17.9894L25.666 12.6228V34.9994C25.666 35.6183 25.9118 36.2118 26.3494 36.6493C26.787 37.0869 27.3805 37.3328 27.9994 37.3328C28.6182 37.3328 29.2117 37.0869 29.6493 36.6493C30.0869 36.2118 30.3327 35.6183 30.3327 34.9994V12.6228L35.676 17.9894C35.8929 18.2081 36.151 18.3817 36.4353 18.5002C36.7197 18.6186 37.0247 18.6796 37.3327 18.6796C37.6407 18.6796 37.9457 18.6186 38.23 18.5002C38.5144 18.3817 38.7724 18.2081 38.9893 17.9894C39.208 17.7725 39.3816 17.5145 39.5001 17.2301C39.6186 16.9458 39.6795 16.6408 39.6795 16.3328C39.6795 16.0247 39.6186 15.7198 39.5001 15.4354C39.3816 15.1511 39.208 14.893 38.9893 14.6761L29.656 5.34277C29.4341 5.13034 29.1724 4.96382 28.886 4.85277C28.3179 4.61939 27.6808 4.61939 27.1127 4.85277C26.8263 4.96382 26.5646 5.13034 26.3427 5.34277L17.0093 14.6761C16.7918 14.8937 16.6192 15.1519 16.5015 15.4362C16.3837 15.7204 16.3231 16.0251 16.3231 16.3328C16.3231 16.6404 16.3837 16.9451 16.5015 17.2293C16.6192 17.5136 16.7918 17.7719 17.0093 17.9894C17.2269 18.207 17.4852 18.3796 17.7694 18.4973C18.0537 18.615 18.3583 18.6756 18.666 18.6756C18.9737 18.6756 19.2783 18.615 19.5626 18.4973C19.8469 18.3796 20.1051 18.207 20.3227 17.9894ZM48.9994 27.9994C48.3805 27.9994 47.787 28.2453 47.3494 28.6829C46.9118 29.1204 46.666 29.7139 46.666 30.3328V44.3328C46.666 44.9516 46.4202 45.5451 45.9826 45.9827C45.545 46.4203 44.9515 46.6661 44.3327 46.6661H11.666C11.0472 46.6661 10.4537 46.4203 10.0161 45.9827C9.57852 45.5451 9.33268 44.9516 9.33268 44.3328V30.3328C9.33268 29.7139 9.08685 29.1204 8.64927 28.6829C8.21168 28.2453 7.61819 27.9994 6.99935 27.9994C6.38051 27.9994 5.78702 28.2453 5.34943 28.6829C4.91185 29.1204 4.66602 29.7139 4.66602 30.3328V44.3328C4.66602 46.1893 5.40351 47.9698 6.71627 49.2825C8.02902 50.5953 9.8095 51.3328 11.666 51.3328H44.3327C46.1892 51.3328 47.9697 50.5953 49.2824 49.2825C50.5952 47.9698 51.3327 46.1893 51.3327 44.3328V30.3328C51.3327 29.7139 51.0869 29.1204 50.6493 28.6829C50.2117 28.2453 49.6182 27.9994 48.9994 27.9994Z" fill="#002044"/>
</svg>
