<svg width="138" height="47" viewBox="0 0 138 47" fill="none" xmlns="http://www.w3.org/2000/svg">
<path d="M5.752 39.912V39.4H1.912V45H2.504V42.624H5.4V42.112H2.504V39.912H5.752ZM7.06438 39.872C7.30438 39.872 7.48038 39.688 7.48038 39.456C7.48038 39.24 7.29638 39.064 7.06438 39.064C6.83238 39.064 6.64838 39.248 6.64838 39.464C6.64838 39.688 6.83238 39.872 7.06438 39.872ZM6.77638 45H7.34438V40.792H6.77638V45ZM11.0688 40.76C10.3408 40.76 9.77281 41.056 9.46881 41.568V40.792H8.92481V45H9.49281V42.792C9.49281 41.832 10.0608 41.272 10.9648 41.272C11.7648 41.272 12.2288 41.728 12.2288 42.616V45H12.7968V42.56C12.7968 41.352 12.0928 40.76 11.0688 40.76ZM15.8109 40.76C15.1469 40.76 14.5229 40.968 14.0989 41.328L14.3549 41.752C14.6989 41.448 15.2109 41.256 15.7549 41.256C16.5389 41.256 16.9469 41.648 16.9469 42.368V42.624H15.6109C14.4029 42.624 13.9869 43.168 13.9869 43.816C13.9869 44.544 14.5709 45.04 15.5229 45.04C16.2189 45.04 16.7149 44.776 16.9709 44.344V45H17.5149V42.392C17.5149 41.304 16.8989 40.76 15.8109 40.76ZM15.6109 44.592C14.9389 44.592 14.5469 44.288 14.5469 43.8C14.5469 43.368 14.8109 43.048 15.6269 43.048H16.9469V43.736C16.7229 44.288 16.2509 44.592 15.6109 44.592ZM21.2016 40.76C20.4736 40.76 19.9056 41.056 19.6016 41.568V40.792H19.0576V45H19.6256V42.792C19.6256 41.832 20.1936 41.272 21.0976 41.272C21.8976 41.272 22.3616 41.728 22.3616 42.616V45H22.9296V42.56C22.9296 41.352 22.2256 40.76 21.2016 40.76ZM26.2313 45.04C26.9433 45.04 27.5433 44.752 27.8793 44.208L27.4553 43.92C27.1673 44.344 26.7193 44.536 26.2313 44.536C25.3113 44.536 24.6393 43.888 24.6393 42.896C24.6393 41.912 25.3113 41.256 26.2313 41.256C26.7193 41.256 27.1673 41.456 27.4553 41.88L27.8793 41.592C27.5433 41.04 26.9433 40.76 26.2313 40.76C24.9753 40.76 24.0633 41.64 24.0633 42.896C24.0633 44.152 24.9753 45.04 26.2313 45.04ZM29.2831 39.872C29.5231 39.872 29.6991 39.688 29.6991 39.456C29.6991 39.24 29.5151 39.064 29.2831 39.064C29.0511 39.064 28.8671 39.248 28.8671 39.464C28.8671 39.688 29.0511 39.872 29.2831 39.872ZM28.9951 45H29.5631V40.792H28.9951V45ZM32.6156 40.76C31.9516 40.76 31.3276 40.968 30.9036 41.328L31.1596 41.752C31.5036 41.448 32.0156 41.256 32.5596 41.256C33.3436 41.256 33.7516 41.648 33.7516 42.368V42.624H32.4156C31.2076 42.624 30.7916 43.168 30.7916 43.816C30.7916 44.544 31.3756 45.04 32.3276 45.04C33.0236 45.04 33.5196 44.776 33.7756 44.344V45H34.3196V42.392C34.3196 41.304 33.7036 40.76 32.6156 40.76ZM32.4156 44.592C31.7436 44.592 31.3516 44.288 31.3516 43.8C31.3516 43.368 31.6156 43.048 32.4316 43.048H33.7516V43.736C33.5276 44.288 33.0556 44.592 32.4156 44.592ZM35.8623 45H36.4303V39.064H35.8623V45ZM40.2245 45H43.9525V44.488H40.8165V39.4H40.2245V45ZM45.1034 39.872C45.3434 39.872 45.5194 39.688 45.5194 39.456C45.5194 39.24 45.3354 39.064 45.1034 39.064C44.8714 39.064 44.6874 39.248 44.6874 39.464C44.6874 39.688 44.8714 39.872 45.1034 39.872ZM44.8154 45H45.3834V40.792H44.8154V45ZM48.9799 44.336C48.8199 44.48 48.5879 44.552 48.3559 44.552C47.8839 44.552 47.6279 44.28 47.6279 43.784V41.272H48.9079V40.792H47.6279V39.872H47.0599V40.792H46.3079V41.272H47.0599V43.816C47.0599 44.592 47.4999 45.04 48.2919 45.04C48.6199 45.04 48.9559 44.944 49.1799 44.744L48.9799 44.336ZM53.7374 42.896C53.7374 41.632 52.8814 40.76 51.6974 40.76C50.5134 40.76 49.6414 41.648 49.6414 42.896C49.6414 44.144 50.5374 45.04 51.8494 45.04C52.5134 45.04 53.0974 44.8 53.4734 44.352L53.1534 43.984C52.8334 44.352 52.3774 44.536 51.8654 44.536C50.9454 44.536 50.2734 43.952 50.2094 43.072H53.7294C53.7294 43.008 53.7374 42.944 53.7374 42.896ZM51.6974 41.248C52.5214 41.248 53.1214 41.824 53.1934 42.648H50.2094C50.2814 41.824 50.8814 41.248 51.6974 41.248ZM55.4376 41.616V40.792H54.8936V45H55.4616V42.856C55.4616 41.864 55.9976 41.304 56.8776 41.304C56.9176 41.304 56.9656 41.312 57.0136 41.312V40.76C56.2376 40.76 55.7016 41.056 55.4376 41.616ZM59.5062 40.76C58.8422 40.76 58.2182 40.968 57.7942 41.328L58.0502 41.752C58.3942 41.448 58.9062 41.256 59.4502 41.256C60.2342 41.256 60.6422 41.648 60.6422 42.368V42.624H59.3062C58.0982 42.624 57.6822 43.168 57.6822 43.816C57.6822 44.544 58.2662 45.04 59.2182 45.04C59.9142 45.04 60.4102 44.776 60.6662 44.344V45H61.2102V42.392C61.2102 41.304 60.5942 40.76 59.5062 40.76ZM59.3062 44.592C58.6342 44.592 58.2422 44.288 58.2422 43.8C58.2422 43.368 58.5062 43.048 59.3222 43.048H60.6422V43.736C60.4182 44.288 59.9462 44.592 59.3062 44.592ZM64.5126 45.04C65.2246 45.04 65.8246 44.752 66.1606 44.208L65.7366 43.92C65.4486 44.344 65.0006 44.536 64.5126 44.536C63.5926 44.536 62.9206 43.888 62.9206 42.896C62.9206 41.912 63.5926 41.256 64.5126 41.256C65.0006 41.256 65.4486 41.456 65.7366 41.88L66.1606 41.592C65.8246 41.04 65.2246 40.76 64.5126 40.76C63.2566 40.76 62.3446 41.64 62.3446 42.896C62.3446 44.152 63.2566 45.04 64.5126 45.04ZM70.1899 40.792L68.6059 44.368L67.0219 40.792H66.4299L68.3099 44.992L68.1259 45.4C67.8859 45.928 67.6299 46.104 67.2539 46.104C66.9499 46.104 66.6939 45.992 66.4859 45.784L66.2219 46.208C66.4779 46.464 66.8539 46.592 67.2459 46.592C67.8459 46.592 68.2939 46.328 68.6459 45.504L70.7499 40.792H70.1899ZM79.2996 40.792L77.9636 44.368L76.6196 40.792H76.1316L74.7796 44.368L73.4596 40.792H72.9156L74.4996 45H75.0356L76.3636 41.552L77.6916 45H78.2276L79.8196 40.792H79.2996ZM80.9628 39.872C81.2028 39.872 81.3788 39.688 81.3788 39.456C81.3788 39.24 81.1948 39.064 80.9628 39.064C80.7308 39.064 80.5468 39.248 80.5468 39.464C80.5468 39.688 80.7308 39.872 80.9628 39.872ZM80.6748 45H81.2428V40.792H80.6748V45ZM84.8393 44.336C84.6793 44.48 84.4473 44.552 84.2153 44.552C83.7433 44.552 83.4873 44.28 83.4873 43.784V41.272H84.7673V40.792H83.4873V39.872H82.9193V40.792H82.1673V41.272H82.9193V43.816C82.9193 44.592 83.3593 45.04 84.1513 45.04C84.4793 45.04 84.8153 44.944 85.0393 44.744L84.8393 44.336ZM88.2173 40.76C87.5053 40.76 86.9533 41.04 86.6413 41.528V39.064H86.0733V45H86.6413V42.792C86.6413 41.832 87.2093 41.272 88.1133 41.272C88.9133 41.272 89.3773 41.728 89.3773 42.616V45H89.9453V42.56C89.9453 41.352 89.2413 40.76 88.2173 40.76ZM97.7251 45H98.4291L95.8371 41.936L98.2611 39.4H97.5811L94.2931 42.784V39.4H93.7011V45H94.2931V43.528L95.4371 42.368L97.7251 45ZM106.188 39.4L104.548 44.24L102.9 39.4H102.348L100.676 44.216L99.0603 39.4H98.4523L100.34 45H100.956L102.604 40.224L104.244 45H104.868L106.756 39.4H106.188ZM110.235 45.048C111.915 45.048 113.171 43.84 113.171 42.2C113.171 40.56 111.915 39.352 110.235 39.352C108.539 39.352 107.291 40.568 107.291 42.2C107.291 43.832 108.539 45.048 110.235 45.048ZM110.235 44.52C108.883 44.52 107.875 43.536 107.875 42.2C107.875 40.864 108.883 39.88 110.235 39.88C111.579 39.88 112.579 40.864 112.579 42.2C112.579 43.536 111.579 44.52 110.235 44.52Z" fill="#009649"/>
<path d="M0.91 31L8.455 8.665H14.575L22.12 31H16.345L14.95 26.44H7.93L6.535 31H0.91ZM13.72 22.39L11.44 15.025L9.16 22.39H13.72ZM39.685 31H34.435V29.14C33.525 29.9 32.69 30.48 31.93 30.88C31.17 31.27 30.265 31.465 29.215 31.465C27.545 31.465 26.24 30.94 25.3 29.89C24.37 28.83 23.905 27.24 23.905 25.12V14.155H29.185V22.51C29.185 23.38 29.205 24.09 29.245 24.64C29.295 25.19 29.405 25.655 29.575 26.035C29.735 26.385 29.98 26.65 30.31 26.83C30.65 27.01 31.12 27.1 31.72 27.1C32.09 27.1 32.525 27.01 33.025 26.83C33.535 26.65 34.005 26.405 34.435 26.095V14.155H39.685V31ZM55.03 19.12H54.595C54.395 19.05 54.105 19 53.725 18.97C53.345 18.93 52.925 18.91 52.465 18.91C51.915 18.91 51.335 18.99 50.725 19.15C50.125 19.31 49.54 19.5 48.97 19.72V31H43.72V14.155H48.97V16.57C49.21 16.35 49.54 16.075 49.96 15.745C50.39 15.405 50.78 15.135 51.13 14.935C51.51 14.705 51.95 14.51 52.45 14.35C52.96 14.18 53.44 14.095 53.89 14.095C54.06 14.095 54.25 14.1 54.46 14.11C54.67 14.12 54.86 14.135 55.03 14.155V19.12ZM73.21 22.585C73.21 25.355 72.45 27.54 70.93 29.14C69.42 30.73 67.28 31.525 64.51 31.525C61.76 31.525 59.62 30.73 58.09 29.14C56.57 27.54 55.81 25.355 55.81 22.585C55.81 19.785 56.57 17.595 58.09 16.015C59.62 14.425 61.76 13.63 64.51 13.63C67.27 13.63 69.41 14.43 70.93 16.03C72.45 17.62 73.21 19.805 73.21 22.585ZM67.825 22.615C67.825 21.615 67.74 20.785 67.57 20.125C67.41 19.455 67.185 18.92 66.895 18.52C66.585 18.1 66.235 17.81 65.845 17.65C65.455 17.48 65.01 17.395 64.51 17.395C64.04 17.395 63.615 17.47 63.235 17.62C62.855 17.76 62.505 18.035 62.185 18.445C61.885 18.835 61.645 19.37 61.465 20.05C61.285 20.73 61.195 21.585 61.195 22.615C61.195 23.645 61.28 24.48 61.45 25.12C61.62 25.75 61.84 26.255 62.11 26.635C62.39 27.025 62.74 27.31 63.16 27.49C63.58 27.67 64.045 27.76 64.555 27.76C64.975 27.76 65.4 27.67 65.83 27.49C66.27 27.31 66.62 27.04 66.88 26.68C67.19 26.25 67.425 25.735 67.585 25.135C67.745 24.525 67.825 23.685 67.825 22.615ZM87.31 19.12H86.875C86.675 19.05 86.385 19 86.005 18.97C85.625 18.93 85.205 18.91 84.745 18.91C84.195 18.91 83.615 18.99 83.005 19.15C82.405 19.31 81.82 19.5 81.25 19.72V31H76V14.155H81.25V16.57C81.49 16.35 81.82 16.075 82.24 15.745C82.67 15.405 83.06 15.135 83.41 14.935C83.79 14.705 84.23 14.51 84.73 14.35C85.24 14.18 85.72 14.095 86.17 14.095C86.34 14.095 86.53 14.1 86.74 14.11C86.95 14.12 87.14 14.135 87.31 14.155V19.12ZM98.605 26.605V23.095C97.715 23.185 96.995 23.265 96.445 23.335C95.895 23.395 95.355 23.52 94.825 23.71C94.365 23.87 94.005 24.115 93.745 24.445C93.495 24.765 93.37 25.195 93.37 25.735C93.37 26.525 93.58 27.07 94 27.37C94.43 27.66 95.06 27.805 95.89 27.805C96.35 27.805 96.82 27.7 97.3 27.49C97.78 27.28 98.215 26.985 98.605 26.605ZM98.605 29.215C98.245 29.515 97.92 29.785 97.63 30.025C97.35 30.265 96.97 30.505 96.49 30.745C96.02 30.975 95.56 31.15 95.11 31.27C94.67 31.39 94.05 31.45 93.25 31.45C91.76 31.45 90.52 30.95 89.53 29.95C88.55 28.95 88.06 27.69 88.06 26.17C88.06 24.92 88.31 23.91 88.81 23.14C89.31 22.37 90.03 21.76 90.97 21.31C91.92 20.85 93.055 20.53 94.375 20.35C95.695 20.17 97.115 20.03 98.635 19.93V19.84C98.635 18.91 98.29 18.27 97.6 17.92C96.92 17.56 95.895 17.38 94.525 17.38C93.905 17.38 93.18 17.495 92.35 17.725C91.52 17.945 90.71 18.23 89.92 18.58H89.47V14.515C89.99 14.365 90.83 14.19 91.99 13.99C93.15 13.78 94.32 13.675 95.5 13.675C98.4 13.675 100.51 14.16 101.83 15.13C103.16 16.09 103.825 17.56 103.825 19.54V31H98.605V29.215Z" fill="#002044"/>
<path fill-rule="evenodd" clip-rule="evenodd" d="M126.045 32.4986V26.1014L125.635 26.5144L126.045 26.1014V22.3457H122.886V35.9133C123.416 35.9712 123.949 36.0001 124.483 35.9997C125.004 35.9978 125.526 35.9689 126.045 35.9133V32.4986Z" fill="#002044"/>
<path fill-rule="evenodd" clip-rule="evenodd" d="M131.195 30.0638V20.5449H128.032V35.4332C129.133 35.1479 130.195 34.7302 131.195 34.1894V30.0638Z" fill="#002044"/>
<path fill-rule="evenodd" clip-rule="evenodd" d="M134.653 17.5097V17.5577C134.711 17.7162 134.769 17.8843 134.822 18.038L138 16.7845C137.789 16.1561 137.534 15.5431 137.238 14.9498V14.9258L134.653 17.5097ZM110 21.3278C110.003 24.5152 111.072 27.6107 113.039 30.1252C115.006 32.6396 117.758 34.4297 120.86 35.2124V24.123H117.76L117.702 24.8338V29.9918C116.355 28.9618 115.267 27.6345 114.523 26.1143C113.779 24.5941 113.4 22.9226 113.415 21.2316C113.43 19.5406 113.84 17.8762 114.611 16.3696C115.382 14.863 116.494 13.5554 117.86 12.5497C119.225 11.5441 120.806 10.8679 122.478 10.5744C124.151 10.281 125.868 10.3783 127.497 10.8587C129.125 11.3391 130.619 12.1895 131.86 13.3428C133.102 14.4961 134.058 15.9209 134.653 17.5049L137.243 14.9306C135.797 12.0422 133.414 9.72494 130.48 8.35465C127.546 6.98436 124.233 6.64147 121.079 7.3816C117.925 8.12172 115.114 9.90145 113.103 12.4321C111.092 14.9627 109.999 18.0958 110 21.323V21.3278Z" fill="#002044"/>
</svg>
