<svg width="243" height="122" viewBox="0 0 243 122" fill="none" xmlns="http://www.w3.org/2000/svg">
<path d="M0.652676 51L13.1098 14.124H23.2142L35.6713 51H26.1365L23.8333 43.4712H12.243L9.93979 51H0.652676ZM21.8025 36.7845L18.0381 24.6246L14.2738 36.7845H21.8025ZM64.6718 51H56.0039V47.9291C54.5014 49.1839 53.1228 50.1415 51.868 50.8019C50.6132 51.4458 49.119 51.7677 47.3854 51.7677C44.6282 51.7677 42.4736 50.9009 40.9216 49.1673C39.3861 47.4172 38.6184 44.7921 38.6184 41.2919V23.1882H47.3359V36.9827C47.3359 38.4191 47.3689 39.5913 47.4349 40.4994C47.5175 41.4074 47.6991 42.1752 47.9798 42.8026C48.244 43.3804 48.6485 43.818 49.1933 44.1152C49.7547 44.4123 50.5306 44.5609 51.5213 44.5609C52.1322 44.5609 52.8504 44.4123 53.6759 44.1152C54.5179 43.818 55.2939 43.4135 56.0039 42.9016V23.1882H64.6718V51ZM90.0071 31.3856H89.2889C88.9586 31.2701 88.4798 31.1875 87.8524 31.138C87.2251 31.0719 86.5316 31.0389 85.7721 31.0389C84.8641 31.0389 83.9065 31.171 82.8993 31.4352C81.9087 31.6993 80.9428 32.013 80.0017 32.3762V51H71.3338V23.1882H80.0017V27.1755C80.398 26.8122 80.9428 26.3582 81.6363 25.8134C82.3462 25.252 82.9901 24.8062 83.568 24.476C84.1954 24.0963 84.9218 23.7743 85.7474 23.5102C86.5894 23.2295 87.3819 23.0891 88.1249 23.0891C88.4055 23.0891 88.7192 23.0974 89.066 23.1139C89.4127 23.1304 89.7264 23.1552 90.0071 23.1882V31.3856ZM120.023 37.1065C120.023 41.6799 118.768 45.2874 116.259 47.9291C113.766 50.5542 110.232 51.8668 105.659 51.8668C101.119 51.8668 97.5853 50.5542 95.0592 47.9291C92.5497 45.2874 91.2949 41.6799 91.2949 37.1065C91.2949 32.4836 92.5497 28.8678 95.0592 26.2591C97.5853 23.634 101.119 22.3214 105.659 22.3214C110.216 22.3214 113.749 23.6422 116.259 26.2839C118.768 28.9091 120.023 32.5166 120.023 37.1065ZM111.132 37.156C111.132 35.505 110.992 34.1346 110.711 33.0449C110.447 31.9387 110.075 31.0554 109.597 30.395C109.085 29.7016 108.507 29.2228 107.863 28.9586C107.219 28.6779 106.484 28.5376 105.659 28.5376C104.883 28.5376 104.181 28.6614 103.554 28.9091C102.926 29.1402 102.349 29.5942 101.82 30.2712C101.325 30.9151 100.929 31.7984 100.632 32.9211C100.334 34.0438 100.186 35.4554 100.186 37.156C100.186 38.8566 100.326 40.2352 100.607 41.2919C100.887 42.332 101.251 43.1658 101.696 43.7932C102.159 44.4371 102.737 44.9077 103.43 45.2048C104.123 45.502 104.891 45.6506 105.733 45.6506C106.427 45.6506 107.128 45.502 107.838 45.2048C108.565 44.9077 109.143 44.4619 109.572 43.8675C110.084 43.1576 110.472 42.3073 110.736 41.3166C111 40.3095 111.132 38.9226 111.132 37.156ZM143.303 31.3856H142.584C142.254 31.2701 141.775 31.1875 141.148 31.138C140.521 31.0719 139.827 31.0389 139.068 31.0389C138.16 31.0389 137.202 31.171 136.195 31.4352C135.204 31.6993 134.238 32.013 133.297 32.3762V51H124.629V23.1882H133.297V27.1755C133.694 26.8122 134.238 26.3582 134.932 25.8134C135.642 25.252 136.286 24.8062 136.864 24.476C137.491 24.0963 138.217 23.7743 139.043 23.5102C139.885 23.2295 140.678 23.0891 141.42 23.0891C141.701 23.0891 142.015 23.0974 142.362 23.1139C142.708 23.1304 143.022 23.1552 143.303 23.1882V31.3856ZM161.951 43.7437V37.9485C160.482 38.0971 159.293 38.2292 158.385 38.3448C157.477 38.4438 156.585 38.6502 155.71 38.9639C154.951 39.2281 154.356 39.6326 153.927 40.1774C153.514 40.7058 153.308 41.4157 153.308 42.3073C153.308 43.6116 153.655 44.5114 154.348 45.0067C155.058 45.4855 156.098 45.7249 157.469 45.7249C158.228 45.7249 159.004 45.5516 159.797 45.2048C160.589 44.8581 161.307 44.3711 161.951 43.7437ZM161.951 48.0529C161.357 48.5482 160.82 48.994 160.341 49.3902C159.879 49.7865 159.252 50.1827 158.459 50.579C157.683 50.9587 156.924 51.2477 156.181 51.4458C155.454 51.6439 154.431 51.743 153.11 51.743C150.65 51.743 148.603 50.9174 146.968 49.2664C145.35 47.6154 144.541 45.5351 144.541 43.0255C144.541 40.9617 144.954 39.2941 145.779 38.0228C146.605 36.7515 147.794 35.7444 149.345 35.0014C150.914 34.2419 152.788 33.7136 154.967 33.4164C157.147 33.1192 159.491 32.8881 162.001 32.723V32.5744C162.001 31.0389 161.431 29.9822 160.292 29.4044C159.169 28.81 157.477 28.5128 155.215 28.5128C154.191 28.5128 152.994 28.7027 151.624 29.0824C150.254 29.4457 148.916 29.9162 147.612 30.4941H146.869V23.7826C147.727 23.5349 149.114 23.246 151.03 22.9158C152.945 22.5691 154.876 22.3957 156.825 22.3957C161.613 22.3957 165.096 23.1965 167.276 24.798C169.472 26.383 170.57 28.81 170.57 32.0791V51H161.951V48.0529Z" fill="white"/>
<path d="M7.20522 55.3703V54.594H1.38282V63.085H2.28044V59.4824H6.6715V58.706H2.28044V55.3703H7.20522ZM9.19511 55.3096C9.55901 55.3096 9.82587 55.0306 9.82587 54.6789C9.82587 54.3514 9.54688 54.0845 9.19511 54.0845C8.84334 54.0845 8.56435 54.3635 8.56435 54.691C8.56435 55.0306 8.84334 55.3096 9.19511 55.3096ZM8.75843 63.085H9.61966V56.7046H8.75843V63.085ZM15.2668 56.6561C14.163 56.6561 13.3018 57.1049 12.8408 57.8812V56.7046H12.016V63.085H12.8772V59.7371C12.8772 58.2815 13.7385 57.4324 15.1091 57.4324C16.3221 57.4324 17.0257 58.1238 17.0257 59.4702V63.085H17.8869V59.3853C17.8869 57.5537 16.8195 56.6561 15.2668 56.6561ZM22.457 56.6561C21.4502 56.6561 20.5041 56.9714 19.8612 57.5173L20.2493 58.1602C20.7709 57.6992 21.5472 57.4081 22.3721 57.4081C23.5608 57.4081 24.1794 58.0025 24.1794 59.0942V59.4824H22.1537C20.3221 59.4824 19.6913 60.3072 19.6913 61.2897C19.6913 62.3936 20.5768 63.1456 22.0203 63.1456C23.0756 63.1456 23.8277 62.7453 24.2158 62.0903V63.085H25.0407V59.1306C25.0407 57.4809 24.1067 56.6561 22.457 56.6561ZM22.1537 62.4663C21.1348 62.4663 20.5404 62.0054 20.5404 61.2655C20.5404 60.6104 20.9407 60.1252 22.178 60.1252H24.1794V61.1684C23.8398 62.0054 23.1241 62.4663 22.1537 62.4663ZM30.6307 56.6561C29.5269 56.6561 28.6657 57.1049 28.2047 57.8812V56.7046H27.3799V63.085H28.2411V59.7371C28.2411 58.2815 29.1023 57.4324 30.473 57.4324C31.686 57.4324 32.3896 58.1238 32.3896 59.4702V63.085H33.2508V59.3853C33.2508 57.5537 32.1834 56.6561 30.6307 56.6561ZM38.257 63.1456C39.3365 63.1456 40.2463 62.7089 40.7558 61.8841L40.1129 61.4474C39.6762 62.0903 38.9969 62.3814 38.257 62.3814C36.862 62.3814 35.8431 61.3989 35.8431 59.8948C35.8431 58.4028 36.862 57.4081 38.257 57.4081C38.9969 57.4081 39.6762 57.7114 40.1129 58.3543L40.7558 57.9176C40.2463 57.0806 39.3365 56.6561 38.257 56.6561C36.3526 56.6561 34.9697 57.9904 34.9697 59.8948C34.9697 61.7992 36.3526 63.1456 38.257 63.1456ZM42.8843 55.3096C43.2482 55.3096 43.515 55.0306 43.515 54.6789C43.515 54.3514 43.2361 54.0845 42.8843 54.0845C42.5325 54.0845 42.2535 54.3635 42.2535 54.691C42.2535 55.0306 42.5325 55.3096 42.8843 55.3096ZM42.4476 63.085H43.3088V56.7046H42.4476V63.085ZM47.9371 56.6561C46.9303 56.6561 45.9842 56.9714 45.3413 57.5173L45.7294 58.1602C46.251 57.6992 47.0273 57.4081 47.8522 57.4081C49.0409 57.4081 49.6596 58.0025 49.6596 59.0942V59.4824H47.6338C45.8022 59.4824 45.1715 60.3072 45.1715 61.2897C45.1715 62.3936 46.0569 63.1456 47.5004 63.1456C48.5557 63.1456 49.3078 62.7453 49.6959 62.0903V63.085H50.5208V59.1306C50.5208 57.4809 49.5868 56.6561 47.9371 56.6561ZM47.6338 62.4663C46.6149 62.4663 46.0206 62.0054 46.0206 61.2655C46.0206 60.6104 46.4208 60.1252 47.6581 60.1252H49.6596V61.1684C49.3199 62.0054 48.6042 62.4663 47.6338 62.4663ZM52.86 63.085H53.7212V54.0845H52.86V63.085ZM59.4741 63.085H65.1267V62.3086H60.3718V54.594H59.4741V63.085ZM66.8718 55.3096C67.2357 55.3096 67.5026 55.0306 67.5026 54.6789C67.5026 54.3514 67.2236 54.0845 66.8718 54.0845C66.5201 54.0845 66.2411 54.3635 66.2411 54.691C66.2411 55.0306 66.5201 55.3096 66.8718 55.3096ZM66.4352 63.085H67.2964V56.7046H66.4352V63.085ZM72.7495 62.0782C72.5069 62.2965 72.1551 62.4057 71.8033 62.4057C71.0877 62.4057 70.6995 61.9933 70.6995 61.2412V57.4324H72.6403V56.7046H70.6995V55.3096H69.8383V56.7046H68.6981V57.4324H69.8383V61.2897C69.8383 62.4663 70.5054 63.1456 71.7063 63.1456C72.2036 63.1456 72.7131 63.0001 73.0527 62.6968L72.7495 62.0782ZM79.9631 59.8948C79.9631 57.9782 78.6652 56.6561 76.87 56.6561C75.0748 56.6561 73.7526 58.0025 73.7526 59.8948C73.7526 61.7871 75.1111 63.1456 77.1005 63.1456C78.1073 63.1456 78.9927 62.7817 79.5629 62.1024L79.0777 61.5445C78.5925 62.1024 77.901 62.3814 77.1247 62.3814C75.7298 62.3814 74.7109 61.4959 74.6138 60.1616H79.951C79.951 60.0646 79.9631 59.9676 79.9631 59.8948ZM76.87 57.396C78.1194 57.396 79.0291 58.2694 79.1383 59.5187H74.6138C74.723 58.2694 75.6327 57.396 76.87 57.396ZM82.541 57.954V56.7046H81.7161V63.085H82.5773V59.8341C82.5773 58.33 83.3901 57.4809 84.7244 57.4809C84.785 57.4809 84.8578 57.493 84.9306 57.493V56.6561C83.754 56.6561 82.9412 57.1049 82.541 57.954Z" fill="#009649"/>
<path d="M90.8019 56.6561C89.7951 56.6561 88.849 56.9714 88.2061 57.5173L88.5943 58.1602C89.1159 57.6992 89.8922 57.4081 90.717 57.4081C91.9058 57.4081 92.5244 58.0025 92.5244 59.0942V59.4824H90.4987C88.6671 59.4824 88.0363 60.3072 88.0363 61.2897C88.0363 62.3936 88.9218 63.1456 90.3653 63.1456C91.4206 63.1456 92.1726 62.7453 92.5608 62.0903V63.085H93.3856V59.1306C93.3856 57.4809 92.4516 56.6561 90.8019 56.6561ZM90.4987 62.4663C89.4798 62.4663 88.8854 62.0054 88.8854 61.2655C88.8854 60.6104 89.2857 60.1252 90.5229 60.1252H92.5244V61.1684C92.1848 62.0054 91.4691 62.4663 90.4987 62.4663ZM98.3928 63.1456C99.4724 63.1456 100.382 62.7089 100.892 61.8841L100.249 61.4474C99.8121 62.0903 99.1328 62.3814 98.3928 62.3814C96.9979 62.3814 95.979 61.3989 95.979 59.8948C95.979 58.4028 96.9979 57.4081 98.3928 57.4081C99.1328 57.4081 99.8121 57.7114 100.249 58.3543L100.892 57.9176C100.382 57.0806 99.4724 56.6561 98.3928 56.6561C96.4884 56.6561 95.1056 57.9904 95.1056 59.8948C95.1056 61.7992 96.4884 63.1456 98.3928 63.1456ZM107.001 56.7046L104.599 62.1267L102.198 56.7046H101.3L104.151 63.0728L103.872 63.6915C103.508 64.492 103.119 64.7589 102.549 64.7589C102.088 64.7589 101.7 64.5891 101.385 64.2737L100.985 64.9166C101.373 65.3048 101.943 65.4988 102.537 65.4988C103.447 65.4988 104.126 65.0985 104.66 63.8492L107.85 56.7046H107.001ZM120.814 56.7046L118.788 62.1267L116.75 56.7046H116.01L113.96 62.1267L111.959 56.7046H111.134L113.536 63.085H114.348L116.362 57.8569L118.376 63.085H119.188L121.602 56.7046H120.814ZM123.336 55.3096C123.699 55.3096 123.966 55.0306 123.966 54.6789C123.966 54.3514 123.687 54.0845 123.336 54.0845C122.984 54.0845 122.705 54.3635 122.705 54.691C122.705 55.0306 122.984 55.3096 123.336 55.3096ZM122.899 63.085H123.76V56.7046H122.899V63.085ZM129.213 62.0782C128.971 62.2965 128.619 62.4057 128.267 62.4057C127.551 62.4057 127.163 61.9933 127.163 61.2412V57.4324H129.104V56.7046H127.163V55.3096H126.302V56.7046H125.162V57.4324H126.302V61.2897C126.302 62.4663 126.969 63.1456 128.17 63.1456C128.667 63.1456 129.177 63.0001 129.516 62.6968L129.213 62.0782ZM134.335 56.6561C133.256 56.6561 132.419 57.0806 131.945 57.8205V54.0845H131.084V63.085H131.945V59.7371C131.945 58.2815 132.807 57.4324 134.177 57.4324C135.39 57.4324 136.094 58.1238 136.094 59.4702V63.085H136.955V59.3853C136.955 57.5537 135.888 56.6561 134.335 56.6561ZM148.751 63.085H149.819L145.889 58.4392L149.564 54.594H148.533L143.548 59.725V54.594H142.65V63.085H143.548V60.853L145.282 59.0942L148.751 63.085ZM161.584 54.594L159.097 61.9326L156.598 54.594H155.761L153.226 61.8962L150.776 54.594H149.854L152.717 63.085H153.651L156.149 55.8434L158.636 63.085H159.582L162.445 54.594H161.584Z" fill="#009649"/>
<path d="M170.74 63.1577C173.287 63.1577 175.192 61.3261 175.192 58.8395C175.192 56.3528 173.287 54.5212 170.74 54.5212C168.169 54.5212 166.276 56.3649 166.276 58.8395C166.276 61.314 168.169 63.1577 170.74 63.1577ZM170.74 62.3572C168.69 62.3572 167.162 60.8652 167.162 58.8395C167.162 56.8138 168.69 55.3218 170.74 55.3218C172.778 55.3218 174.294 56.8138 174.294 58.8395C174.294 60.8652 172.778 62.3572 170.74 62.3572Z" fill="#009649"/>
<path fill-rule="evenodd" clip-rule="evenodd" d="M216.98 60.3885V47.1162L216.107 47.9638L216.98 47.1162V39.3184H210.24V67.4884C211.373 67.6087 212.511 67.6686 213.651 67.6679C214.763 67.6667 215.874 67.6101 216.98 67.4984V60.3885Z" fill="white"/>
<path fill-rule="evenodd" clip-rule="evenodd" d="M227.995 55.3324V35.6084H221.255V66.5207C223.598 65.9332 225.858 65.0692 227.985 63.948L227.995 55.3324Z" fill="white"/>
<path fill-rule="evenodd" clip-rule="evenodd" d="M235.362 29.2769V29.3666C235.496 29.7057 235.609 30.0447 235.722 30.3638L242.493 27.7612C242.042 26.4572 241.5 25.1845 240.87 23.952V23.952L235.362 29.2769ZM182.836 37.1944C182.828 43.8158 185.101 50.2497 189.293 55.4733C193.486 60.6968 199.358 64.4101 205.976 66.0226V42.998H199.369L199.235 44.4737V55.1834C196.368 53.0434 194.053 50.2868 192.47 47.1306C190.888 43.9744 190.082 40.5048 190.116 36.995C190.151 33.4853 191.024 30.0311 192.668 26.9046C194.311 23.7781 196.68 21.0645 199.588 18.9776C202.496 16.8907 205.864 15.4874 209.426 14.8783C212.988 14.2691 216.647 14.4707 220.115 15.4672C223.583 16.4637 226.765 18.2278 229.411 20.6207C232.057 23.0136 234.094 25.97 235.362 29.257L240.88 23.8822C237.8 17.8851 232.723 13.0737 226.472 10.2286C220.22 7.38355 213.162 6.67161 206.442 8.20832C199.721 9.74503 193.733 13.4403 189.448 18.6945C185.163 23.9488 182.833 30.4539 182.836 37.1545V37.1944Z" fill="white"/>
</svg>
