<svg width="16" height="15" viewBox="0 0 16 15" fill="none" xmlns="http://www.w3.org/2000/svg">
<path d="M9.40898 7.4992L15.7044 1.60597C15.8926 1.42954 15.9983 1.19026 15.9983 0.940755C15.9983 0.691251 15.8926 0.451966 15.7044 0.275541C15.5162 0.099115 15.261 0 14.9949 0C14.7288 0 14.4736 0.099115 14.2854 0.275541L8 6.17814L1.71456 0.275541C1.52639 0.099115 1.27118 2.2152e-07 1.00507 2.23379e-07C0.738961 2.25238e-07 0.483751 0.099115 0.295584 0.275541C0.107417 0.451966 0.0017056 0.691251 0.0017056 0.940755C0.0017056 1.19026 0.107417 1.42954 0.295584 1.60597L6.59102 7.4992L0.295584 13.3924C0.201924 13.4795 0.127583 13.5832 0.0768515 13.6973C0.0261195 13.8115 0 13.934 0 14.0576C0 14.1813 0.0261195 14.3038 0.0768515 14.418C0.127583 14.5321 0.201924 14.6358 0.295584 14.7229C0.38848 14.8107 0.499001 14.8804 0.620772 14.9279C0.742543 14.9755 0.873154 15 1.00507 15C1.13699 15 1.2676 14.9755 1.38937 14.9279C1.51114 14.8804 1.62166 14.8107 1.71456 14.7229L8 8.82026L14.2854 14.7229C14.3783 14.8107 14.4889 14.8804 14.6106 14.9279C14.7324 14.9755 14.863 15 14.9949 15C15.1268 15 15.2575 14.9755 15.3792 14.9279C15.501 14.8804 15.6115 14.8107 15.7044 14.7229C15.7981 14.6358 15.8724 14.5321 15.9231 14.418C15.9739 14.3038 16 14.1813 16 14.0576C16 13.934 15.9739 13.8115 15.9231 13.6973C15.8724 13.5832 15.7981 13.4795 15.7044 13.3924L9.40898 7.4992Z" fill="#353535"/>
</svg>
