<svg width="15" height="17" viewBox="0 0 15 17" fill="none" xmlns="http://www.w3.org/2000/svg">
<path d="M14.8811 13.0903L12.6249 9.00615C13.0866 8.11732 13.3271 7.12086 13.3242 6.10882C13.3242 4.48866 12.7102 2.93486 11.6173 1.78923C10.5243 0.643606 9.04198 0 7.49632 0C5.95067 0 4.46832 0.643606 3.37538 1.78923C2.28244 2.93486 1.66843 4.48866 1.66843 6.10882C1.66556 7.12086 1.90608 8.11732 2.36777 9.00615L0.111545 13.0903C0.0383314 13.2233 -0.000144253 13.3741 4.06413e-07 13.5276C0.000145066 13.681 0.0389047 13.8318 0.112369 13.9645C0.185834 14.0973 0.291404 14.2074 0.41843 14.2838C0.545457 14.3601 0.689445 14.4 0.83587 14.3994H3.22531L4.44084 16.5462C4.48182 16.6173 4.53228 16.682 4.5907 16.7382C4.74504 16.8941 4.95081 16.9816 5.16516 16.9825H5.28172C5.40741 16.9645 5.52751 16.9166 5.63285 16.8425C5.73818 16.7684 5.82596 16.67 5.88949 16.5549L7.49632 13.6576L9.10316 16.5811C9.16762 16.6946 9.25581 16.7912 9.36109 16.8638C9.46637 16.9364 9.58598 16.9829 9.71093 17H9.82748C10.0447 17.0014 10.2539 16.9137 10.4103 16.7556C10.4663 16.7026 10.514 16.6408 10.5518 16.5724L11.7673 14.4256H14.1568C14.3035 14.4262 14.4477 14.3861 14.5749 14.3095C14.7021 14.2329 14.8078 14.1224 14.8811 13.9892C14.9589 13.8535 15 13.6981 15 13.5398C15 13.3814 14.9589 13.2261 14.8811 13.0903V13.0903ZM5.15684 14.4256L4.41586 13.1252C4.3429 12.9962 4.23945 12.8891 4.1155 12.8142C3.99154 12.7393 3.85126 12.6992 3.70819 12.6976H2.26787L3.45842 10.5334C4.27826 11.3614 5.31154 11.9197 6.43065 12.1391L5.15684 14.4256ZM7.49632 10.4723C6.673 10.4723 5.86817 10.2164 5.18361 9.7369C4.49904 9.25744 3.96548 8.57596 3.65041 7.77864C3.33534 6.98133 3.2529 6.10398 3.41353 5.25756C3.57415 4.41113 3.97062 3.63364 4.55279 3.0234C5.13497 2.41316 5.8767 1.99759 6.68421 1.82922C7.49171 1.66086 8.3287 1.74727 9.08935 2.07753C9.85 2.40778 10.5001 2.96706 10.9576 3.68462C11.415 4.40219 11.6591 5.24582 11.6591 6.10882C11.6591 7.26608 11.2205 8.37594 10.4399 9.19425C9.65918 10.0126 8.60036 10.4723 7.49632 10.4723V10.4723ZM11.2845 12.6976C11.1414 12.6992 11.0011 12.7393 10.8772 12.8142C10.7532 12.8891 10.6497 12.9962 10.5768 13.1252L9.83581 14.4256L8.57032 12.1129C9.68552 11.889 10.715 11.3313 11.5342 10.5072L12.7248 12.6714L11.2845 12.6976Z" fill="#2E2E2E"/>
</svg>
