<svg width="10" height="9" viewBox="0 0 10 9" fill="none" xmlns="http://www.w3.org/2000/svg">
<path d="M9.77093 0.243791C9.70478 0.166542 9.62608 0.105227 9.53938 0.0633848C9.45267 0.0215424 9.35966 0 9.26573 0C9.1718 0 9.07879 0.0215424 8.99208 0.0633848C8.90538 0.105227 8.82668 0.166542 8.76053 0.243791L3.45949 6.39216L1.23235 3.80424C1.16367 3.7274 1.08259 3.66697 0.993752 3.62642C0.904911 3.58587 0.810045 3.56598 0.714569 3.56789C0.619093 3.56981 0.524877 3.59348 0.437301 3.63757C0.349725 3.68166 0.270503 3.7453 0.204159 3.82485C0.137815 3.9044 0.085649 3.99831 0.050638 4.10121C0.015627 4.20411 -0.00154303 4.31399 0.000108809 4.42458C0.00176064 4.53517 0.0222019 4.6443 0.0602651 4.74574C0.0983283 4.84718 0.153268 4.93894 0.221948 5.01578L2.95429 8.18063C3.02044 8.25788 3.09914 8.31919 3.18585 8.36104C3.27256 8.40288 3.36556 8.42442 3.45949 8.42442C3.55343 8.42442 3.64643 8.40288 3.73314 8.36104C3.81985 8.31919 3.89855 8.25788 3.96469 8.18063L9.77093 1.45533C9.84315 1.37816 9.9008 1.28449 9.94022 1.18023C9.97965 1.07597 10 0.963382 10 0.849562C10 0.735741 9.97965 0.623154 9.94022 0.518896C9.9008 0.414638 9.84315 0.320969 9.77093 0.243791V0.243791Z" fill="#2E2E2E"/>
</svg>
