<svg width="19" height="19" viewBox="0 0 19 19" fill="none" xmlns="http://www.w3.org/2000/svg">
<path d="M19 4.97764C19.0007 4.85263 18.9767 4.7287 18.9295 4.61296C18.8822 4.49722 18.8125 4.39196 18.7245 4.30319L14.6965 0.275495C14.6077 0.187455 14.5024 0.117801 14.3867 0.0705279C14.271 0.0232551 14.147 -0.000706917 14.022 1.58774e-05C13.897 -0.000706917 13.773 0.0232551 13.6573 0.0705279C13.5415 0.117801 13.4363 0.187455 13.3475 0.275495L10.659 2.96379L0.275515 13.3465C0.187468 13.4353 0.117809 13.5405 0.0705331 13.6563C0.0232568 13.772 -0.000706969 13.896 1.58785e-05 14.021V18.0487C1.58785e-05 18.3006 0.100105 18.5422 0.278264 18.7204C0.456423 18.8985 0.698059 18.9986 0.950014 18.9986H4.97801C5.11094 19.0058 5.24391 18.985 5.36829 18.9376C5.49267 18.8901 5.60568 18.8171 5.70001 18.7231L16.0265 8.34039L18.7245 5.69959C18.8112 5.60752 18.8818 5.50156 18.9335 5.38611C18.9426 5.31039 18.9426 5.23385 18.9335 5.15813C18.9379 5.11391 18.9379 5.06936 18.9335 5.02514L19 4.97764ZM4.58851 17.0987H1.90001V14.4104L11.3335 4.97764L14.022 7.66594L4.58851 17.0987ZM15.3615 6.32654L12.673 3.63824L14.022 2.29884L16.701 4.97764L15.3615 6.32654Z" fill="#2E2E2E"/>
</svg>
