<svg width="19" height="20" viewBox="0 0 19 20" fill="none" xmlns="http://www.w3.org/2000/svg">
<path d="M17.9444 6.01673L11.6111 0.763019C11.0306 0.271652 10.279 0 9.50003 0C8.72111 0 7.96951 0.271652 7.38894 0.763019L1.05565 6.01673C0.720373 6.30047 0.452825 6.64853 0.270818 7.03776C0.0888123 7.42698 -0.00347545 7.84842 0.00010006 8.27403V17.0036C0.00010006 17.7983 0.333728 18.5604 0.927589 19.1224C1.52145 19.6843 2.3269 20 3.16674 20H15.8333C16.6732 20 17.4786 19.6843 18.0725 19.1224C18.6663 18.5604 19 17.7983 19 17.0036V8.26404C19.002 7.84011 18.909 7.42059 18.7271 7.0332C18.5451 6.6458 18.2784 6.29935 17.9444 6.01673ZM11.6111 18.0024H7.38894V13.0084C7.38894 12.7435 7.50015 12.4894 7.6981 12.3021C7.89605 12.1148 8.16454 12.0096 8.44448 12.0096H10.5556C10.8355 12.0096 11.104 12.1148 11.302 12.3021C11.4999 12.4894 11.6111 12.7435 11.6111 13.0084V18.0024ZM16.8889 17.0036C16.8889 17.2685 16.7777 17.5225 16.5797 17.7098C16.3818 17.8972 16.1133 18.0024 15.8333 18.0024H13.7222V13.0084C13.7222 12.2137 13.3886 11.4515 12.7947 10.8896C12.2009 10.3276 11.3954 10.012 10.5556 10.012H8.44448C7.60464 10.012 6.79919 10.3276 6.20533 10.8896C5.61147 11.4515 5.27784 12.2137 5.27784 13.0084V18.0024H3.16674C2.8868 18.0024 2.61831 17.8972 2.42036 17.7098C2.22241 17.5225 2.1112 17.2685 2.1112 17.0036V8.26404C2.11139 8.12223 2.14349 7.98208 2.20537 7.85291C2.26725 7.72375 2.35749 7.60854 2.47008 7.51494L8.80337 2.27121C8.996 2.11109 9.24363 2.02278 9.50003 2.02278C9.75643 2.02278 10.0041 2.11109 10.1967 2.27121L16.53 7.51494C16.6426 7.60854 16.7328 7.72375 16.7947 7.85291C16.8566 7.98208 16.8887 8.12223 16.8889 8.26404V17.0036Z" fill="#2E2E2E"/>
</svg>
