<svg width="15" height="19" viewBox="0 0 15 19" fill="none" xmlns="http://www.w3.org/2000/svg">
<path d="M7.5 10.45C7.25136 10.45 7.0129 10.5501 6.83709 10.7282C6.66127 10.9064 6.5625 11.148 6.5625 11.4V14.25C6.5625 14.502 6.66127 14.7436 6.83709 14.9218C7.0129 15.0999 7.25136 15.2 7.5 15.2C7.74864 15.2 7.9871 15.0999 8.16291 14.9218C8.33873 14.7436 8.4375 14.502 8.4375 14.25V11.4C8.4375 11.148 8.33873 10.9064 8.16291 10.7282C7.9871 10.5501 7.74864 10.45 7.5 10.45ZM12.1875 6.65V4.75C12.1875 3.49022 11.6936 2.28204 10.8146 1.39124C9.93549 0.500445 8.7432 0 7.5 0C6.2568 0 5.06451 0.500445 4.18544 1.39124C3.30636 2.28204 2.8125 3.49022 2.8125 4.75V6.65C2.06658 6.65 1.35121 6.95027 0.823762 7.48475C0.296316 8.01922 0 8.74413 0 9.5V16.15C0 16.9059 0.296316 17.6308 0.823762 18.1653C1.35121 18.6997 2.06658 19 2.8125 19H12.1875C12.9334 19 13.6488 18.6997 14.1762 18.1653C14.7037 17.6308 15 16.9059 15 16.15V9.5C15 8.74413 14.7037 8.01922 14.1762 7.48475C13.6488 6.95027 12.9334 6.65 12.1875 6.65ZM4.6875 4.75C4.6875 3.99413 4.98382 3.26922 5.51126 2.73475C6.03871 2.20027 6.75408 1.9 7.5 1.9C8.24592 1.9 8.96129 2.20027 9.48874 2.73475C10.0162 3.26922 10.3125 3.99413 10.3125 4.75V6.65H4.6875V4.75ZM13.125 16.15C13.125 16.402 13.0262 16.6436 12.8504 16.8218C12.6746 16.9999 12.4361 17.1 12.1875 17.1H2.8125C2.56386 17.1 2.3254 16.9999 2.14959 16.8218C1.97377 16.6436 1.875 16.402 1.875 16.15V9.5C1.875 9.24804 1.97377 9.00641 2.14959 8.82825C2.3254 8.65009 2.56386 8.55 2.8125 8.55H12.1875C12.4361 8.55 12.6746 8.65009 12.8504 8.82825C13.0262 9.00641 13.125 9.24804 13.125 9.5V16.15Z" fill="#2E2E2E"/>
</svg>
