<svg width="20" height="17" viewBox="0 0 20 17" fill="none" xmlns="http://www.w3.org/2000/svg">
<path d="M20 1.92291C19.2512 2.25494 18.4569 2.4728 17.6435 2.56921C18.5003 2.05655 19.1415 1.24984 19.4475 0.299428C18.6421 0.777787 17.7607 1.11455 16.8415 1.29509C16.2784 0.695331 15.5481 0.278623 14.7453 0.099016C13.9424 -0.0805907 13.1042 -0.0148073 12.3392 0.287833C11.5742 0.590473 10.9178 1.116 10.4551 1.79626C9.99248 2.47651 9.74491 3.28009 9.74454 4.10277C9.74419 4.41751 9.77966 4.73127 9.85024 5.038C8.21892 4.95625 6.62302 4.53236 5.16613 3.79386C3.70924 3.05536 2.42394 2.01875 1.39364 0.751318C0.869012 1.65457 0.708268 2.72378 0.944122 3.74136C1.17998 4.75893 1.7947 5.64841 2.6632 6.22876C2.01159 6.20858 1.37428 6.0327 0.80454 5.71583V5.76768C0.804666 6.71498 1.13244 7.63309 1.73228 8.36628C2.33213 9.09948 3.1671 9.60264 4.09561 9.79042C3.74333 9.8865 3.37975 9.93487 3.01461 9.93425C2.75548 9.93425 2.49691 9.91007 2.24227 9.86202C2.50448 10.677 3.01479 11.3898 3.70187 11.9006C4.38895 12.4114 5.21846 12.6948 6.07447 12.7111C4.35395 14.0583 2.16976 14.669 0 14.4095C1.87582 15.6154 4.05923 16.2557 6.28924 16.2537C7.82516 16.2643 9.34787 15.9695 10.7689 15.3866C12.19 14.8037 13.481 13.9443 14.5671 12.8582C15.6532 11.7721 16.5127 10.481 17.0956 9.05997C17.6785 7.63892 17.9732 6.11621 17.9627 4.58029C17.9627 4.40229 17.9585 4.22539 17.9501 4.0496C18.7542 3.46799 19.4484 2.74785 20 1.92291Z" fill="#2E2E2E"/>
</svg>
