<svg width="20" height="20" viewBox="0 0 20 20" fill="none" xmlns="http://www.w3.org/2000/svg">
<path d="M16.25 0H1.25C0.918479 0 0.600537 0.105357 0.366117 0.292893C0.131696 0.48043 0 0.734784 0 1V19C0 19.2652 0.131696 19.5196 0.366117 19.7071C0.600537 19.8946 0.918479 20 1.25 20H16.25C17.2446 20 18.1984 19.6839 18.9017 19.1213C19.6049 18.5587 20 17.7956 20 17V3C20 2.20435 19.6049 1.44129 18.9017 0.87868C18.1984 0.316071 17.2446 0 16.25 0ZM5 18H2.5V2H5V18ZM17.5 17C17.5 17.2652 17.3683 17.5196 17.1339 17.7071C16.8995 17.8946 16.5815 18 16.25 18H7.5V2H16.25C16.5815 2 16.8995 2.10536 17.1339 2.29289C17.3683 2.48043 17.5 2.73478 17.5 3V17Z" fill="#2E2E2E"/>
</svg>
