<svg width="11" height="7" viewBox="0 0 11 7" fill="none" xmlns="http://www.w3.org/2000/svg">
<path d="M10.6913 0.325865C10.4958 0.11715 10.2314 0 9.95568 0C9.68001 0 9.41553 0.11715 9.22002 0.325865L5.47391 4.29283L1.77998 0.325865C1.58447 0.11715 1.31999 0 1.04432 0C0.768644 0 0.504171 0.11715 0.308661 0.325865C0.210857 0.430041 0.133227 0.553981 0.080251 0.690538C0.0272746 0.827095 0 0.973565 0 1.1215C0 1.26943 0.0272746 1.4159 0.080251 1.55246C0.133227 1.68902 0.210857 1.81296 0.308661 1.91713L4.73304 6.66853C4.83004 6.77356 4.94545 6.85693 5.07261 6.91382C5.19977 6.97071 5.33616 7 5.47391 7C5.61166 7 5.74805 6.97071 5.87521 6.91382C6.00237 6.85693 6.11778 6.77356 6.21479 6.66853L10.6913 1.91713C10.7891 1.81296 10.8668 1.68902 10.9197 1.55246C10.9727 1.4159 11 1.26943 11 1.1215C11 0.973565 10.9727 0.827095 10.9197 0.690538C10.8668 0.553981 10.7891 0.430041 10.6913 0.325865Z" fill="#2E2E2E"/>
</svg>
