<svg width="15" height="17" viewBox="0 0 15 17" fill="none" xmlns="http://www.w3.org/2000/svg">
<path d="M14.3167 6.9615C13.7173 6.85087 13.1091 6.79681 12.5 6.8C12.15 6.8 11.8084 6.8 11.4667 6.868C11.0413 6.28905 10.4984 5.81064 9.87504 5.4655C10.4105 4.86901 10.7078 4.08976 10.7084 3.281C10.7084 2.41082 10.3695 1.57629 9.76623 0.960983C9.16299 0.345676 8.34483 0 7.49172 0C6.63862 0 5.82045 0.345676 5.21721 0.960983C4.61397 1.57629 4.27508 2.41082 4.27508 3.281C4.27569 4.08976 4.57296 4.86901 5.10841 5.4655C4.48874 5.81243 3.94668 6.28717 3.51675 6.8595C3.19175 6.8 2.85009 6.8 2.50009 6.8C1.89045 6.80241 1.28232 6.86217 0.683439 6.9785C0.489309 7.01471 0.314077 7.12001 0.188942 7.27567C0.0638075 7.43133 -0.00310765 7.62723 0.000110924 7.8285V14.841C-8.7893e-05 14.9659 0.02669 15.0893 0.0785405 15.2024C0.130391 15.3155 0.20604 15.4156 0.300109 15.4955C0.393584 15.5759 0.503258 15.6343 0.621351 15.6666C0.739444 15.699 0.863062 15.7044 0.983437 15.6825C1.48211 15.5717 1.9899 15.5091 2.50009 15.4955C4.11433 15.4937 5.69354 15.9755 7.04173 16.881V16.881L7.15006 16.9235C7.26059 16.9724 7.37957 16.9984 7.50006 17C7.57959 16.999 7.65842 16.9846 7.73339 16.9575H7.79172L7.90005 16.915C9.26107 15.9862 10.8625 15.492 12.5 15.4955C13.0092 15.4979 13.5169 15.5491 14.0167 15.6485C14.137 15.6704 14.2607 15.665 14.3788 15.6326C14.4969 15.6003 14.6065 15.5419 14.7 15.4615C14.7941 15.3816 14.8697 15.2815 14.9216 15.1684C14.9734 15.0553 15.0002 14.9319 15 14.807V7.7945C14.9993 7.59614 14.9306 7.40428 14.8058 7.25215C14.681 7.10002 14.508 6.9972 14.3167 6.9615V6.9615ZM7.50006 1.7C7.89043 1.72926 8.25549 1.90808 8.52193 2.20055C8.78838 2.49303 8.93647 2.8775 8.93647 3.27675C8.93647 3.676 8.78838 4.06047 8.52193 4.35295C8.25549 4.64542 7.89043 4.82425 7.50006 4.8535V4.8535C7.10969 4.82425 6.74462 4.64542 6.47818 4.35295C6.21173 4.06047 6.06364 3.676 6.06364 3.27675C6.06364 2.8775 6.21173 2.49303 6.47818 2.20055C6.74462 1.90808 7.10969 1.72926 7.50006 1.7V1.7ZM6.66673 14.7305C5.36063 14.1147 3.93897 13.7957 2.50009 13.7955C2.22509 13.7955 1.9501 13.7955 1.66677 13.838V8.5C2.36556 8.42026 3.0716 8.43455 3.76675 8.5425H3.85842C4.85141 8.72865 5.80297 9.0973 6.66673 9.6305V14.7305ZM7.50006 8.16C7.12949 7.94196 6.74534 7.74888 6.35006 7.582H6.30006C6.02507 7.4715 5.75007 7.361 5.46674 7.276C6.04533 6.80627 6.76063 6.54612 7.50006 6.5365V6.5365C8.23752 6.54127 8.95262 6.79537 9.53337 7.259C8.82595 7.48428 8.14428 7.78634 7.50006 8.16V8.16ZM13.3333 13.838C11.6222 13.6626 9.89624 13.9561 8.33338 14.688V9.588C9.19871 9.06848 10.1509 8.71689 11.1417 8.551H11.3084C11.9783 8.44458 12.659 8.42744 13.3333 8.5V13.838Z" fill="#2E2E2E"/>
</svg>
