<svg width="19" height="19" viewBox="0 0 19 19" fill="none" xmlns="http://www.w3.org/2000/svg">
<path d="M18.3366 7.67603C18.0696 7.35554 17.7356 7.09755 17.358 6.92027C16.9804 6.74299 16.5685 6.65074 16.1514 6.65003H11.819L12.3511 5.29153C12.5724 4.69672 12.6461 4.05711 12.5659 3.42756C12.4856 2.79801 12.2539 2.19732 11.8905 1.67701C11.5271 1.1567 11.0428 0.732297 10.4794 0.440217C9.91587 0.148137 9.28994 -0.00290645 8.65525 4.23616e-05C8.47249 0.000423654 8.29372 0.0535037 8.14038 0.152919C7.98703 0.252334 7.86561 0.393864 7.79068 0.560541L5.08294 6.65003H2.85025C2.09432 6.65003 1.36934 6.95029 0.834818 7.48477C0.300293 8.01925 0 8.74416 0 9.50002V16.15C0 16.9059 0.300293 17.6308 0.834818 18.1653C1.36934 18.6997 2.09432 19 2.85025 19H14.9448C15.6116 18.9998 16.2572 18.7658 16.7693 18.3388C17.2814 17.9118 17.6275 17.3188 17.7475 16.663L18.9541 10.013C19.0288 9.60203 19.0121 9.17966 18.9054 8.77582C18.7987 8.37197 18.6045 7.99651 18.3366 7.67603ZM4.75041 17.1H2.85025C2.59827 17.1 2.35661 16.9999 2.17844 16.8218C2.00026 16.6436 1.90017 16.402 1.90017 16.15V9.50002C1.90017 9.24807 2.00026 9.00643 2.17844 8.82827C2.35661 8.65011 2.59827 8.55002 2.85025 8.55002H4.75041V17.1ZM17.1015 9.67102L15.8949 16.321C15.8544 16.5423 15.7367 16.7421 15.5627 16.8847C15.3887 17.0274 15.1698 17.1037 14.9448 17.1H6.65058V7.79953L9.2348 1.98554C9.50081 2.06308 9.74786 2.19492 9.96034 2.37274C10.1728 2.55056 10.3461 2.77049 10.4693 3.01865C10.5925 3.26682 10.663 3.53783 10.6761 3.81457C10.6893 4.09131 10.645 4.36778 10.5459 4.62653L10.0424 5.98503C9.93508 6.27217 9.89885 6.58101 9.9368 6.88518C9.97474 7.18936 10.0857 7.47983 10.2603 7.73183C10.4348 7.98382 10.6677 8.18985 10.9392 8.33232C11.2106 8.4748 11.5125 8.54949 11.819 8.55002H16.1514C16.291 8.5498 16.4289 8.58032 16.5553 8.63943C16.6818 8.69854 16.7936 8.78478 16.883 8.89202C16.9745 8.99778 17.0415 9.12244 17.0793 9.2571C17.1171 9.39176 17.1247 9.5331 17.1015 9.67102Z" fill="#353535" fill-opacity="0.8"/>
</svg>
