<svg width="56" height="54" viewBox="0 0 56 54" fill="none" xmlns="http://www.w3.org/2000/svg">
<path fill-rule="evenodd" clip-rule="evenodd" d="M28.3562 0.408495C32.9971 0.203247 38.1615 -0.835906 42.0705 1.49002C46.0127 3.83572 46.4942 8.95981 48.9445 12.6589C51.1015 15.9152 54.7853 18.3597 55.7111 22.0825C56.6373 25.8067 55.1316 29.6073 54.0782 33.3024C53.0495 36.9113 51.7362 40.389 49.5917 43.5493C47.2967 46.9314 44.9254 50.5312 41.1159 52.4043C37.2775 54.2916 32.702 53.971 28.3562 53.9904C23.9959 54.0099 19.5429 54.1139 15.5371 52.5186C11.4698 50.8987 8.07272 48.09 5.3756 44.8382C2.70113 41.6137 0.512145 37.892 0.0517515 33.8483C-0.394163 29.9318 2.16979 26.3594 2.82872 22.4688C3.53894 18.2753 1.79505 13.6186 4.09934 9.94927C6.41521 6.26151 11.0187 4.3434 15.2585 2.6758C19.3986 1.04743 23.8635 0.607191 28.3562 0.408495Z" fill="#002044"/>
<path d="M20 37C19.8687 37 19.7386 36.9742 19.6173 36.9239C19.4959 36.8737 19.3857 36.8 19.2928 36.7072C19.2 36.6143 19.1263 36.5041 19.0761 36.3827C19.0258 36.2614 19 36.1313 19 36V28C19 27.7348 19.1054 27.4804 19.2929 27.2929C19.4804 27.1054 19.7348 27 20 27C20.2652 27 20.5196 27.1054 20.7071 27.2929C20.8946 27.4804 21 27.7348 21 28V36C21 36.1313 20.9742 36.2614 20.9239 36.3827C20.8737 36.5041 20.8 36.6143 20.7072 36.7072C20.6143 36.8 20.5041 36.8737 20.3827 36.9239C20.2614 36.9742 20.1313 37 20 37ZM25 37C24.8687 37 24.7386 36.9742 24.6173 36.9239C24.4959 36.8737 24.3857 36.8 24.2928 36.7072C24.2 36.6143 24.1263 36.5041 24.0761 36.3827C24.0258 36.2614 24 36.1313 24 36V18C24 17.7348 24.1054 17.4804 24.2929 17.2929C24.4804 17.1054 24.7348 17 25 17C25.2652 17 25.5196 17.1054 25.7071 17.2929C25.8946 17.4804 26 17.7348 26 18V36C26 36.1313 25.9742 36.2614 25.9239 36.3827C25.8737 36.5041 25.8 36.6143 25.7072 36.7072C25.6143 36.8 25.5041 36.8737 25.3827 36.9239C25.2614 36.9742 25.1313 37 25 37ZM30 37C29.8687 37 29.7386 36.9742 29.6173 36.9239C29.4959 36.8737 29.3857 36.8 29.2928 36.7072C29.2 36.6143 29.1263 36.5041 29.0761 36.3827C29.0258 36.2614 29 36.1313 29 36V24C29 23.7348 29.1054 23.4804 29.2929 23.2929C29.4804 23.1054 29.7348 23 30 23C30.2652 23 30.5196 23.1054 30.7071 23.2929C30.8946 23.4804 31 23.7348 31 24V36C31 36.1313 30.9742 36.2614 30.9239 36.3827C30.8737 36.5041 30.8 36.6143 30.7072 36.7072C30.6143 36.8 30.5041 36.8737 30.3827 36.9239C30.2614 36.9742 30.1313 37 30 37ZM35 37C34.8687 37 34.7386 36.9742 34.6173 36.9239C34.4959 36.8737 34.3857 36.8 34.2928 36.7072C34.2 36.6143 34.1263 36.5041 34.0761 36.3827C34.0258 36.2614 34 36.1313 34 36V32C34 31.7348 34.1054 31.4804 34.2929 31.2929C34.4804 31.1054 34.7348 31 35 31C35.2652 31 35.5196 31.1054 35.7071 31.2929C35.8946 31.4804 36 31.7348 36 32V36C36 36.1313 35.9742 36.2614 35.9239 36.3827C35.8737 36.5041 35.8 36.6143 35.7072 36.7072C35.6143 36.8 35.5041 36.8737 35.3827 36.9239C35.2614 36.9742 35.1313 37 35 37Z" fill="#FAFAFA"/>
</svg>
