<svg width="36" height="39" viewBox="0 0 36 39" fill="none" xmlns="http://www.w3.org/2000/svg">
<path d="M24.6841 20.8832C26.4576 19.3799 27.752 17.3185 28.3874 14.9858C29.0227 12.653 28.9674 10.1649 28.2292 7.86754C27.4909 5.57021 26.1064 3.57792 24.2682 2.16784C22.4301 0.757752 20.2297 0 17.9732 0C15.7167 0 13.5163 0.757752 11.6781 2.16784C9.83995 3.57792 8.45542 5.57021 7.71716 7.86754C6.97889 10.1649 6.9236 12.653 7.55897 14.9858C8.19434 17.3185 9.48878 19.3799 11.2622 20.8832C8.2234 22.1949 5.57195 24.3704 3.59051 27.1779C1.60906 29.9854 0.371898 33.3195 0.0109109 36.825C-0.0152192 37.0809 0.00569506 37.3399 0.0724591 37.5871C0.139223 37.8343 0.25053 38.065 0.400024 38.2658C0.70194 38.6715 1.14107 38.9314 1.62082 38.9882C2.10057 39.0451 2.58163 38.8943 2.95818 38.569C3.33473 38.2437 3.57592 37.7706 3.62869 37.2537C4.02589 33.4441 5.71196 29.9256 8.36475 27.3706C11.0175 24.8156 14.4511 23.4031 18.0093 23.4031C21.5676 23.4031 25.0012 24.8156 27.6539 27.3706C30.3067 29.9256 31.9928 33.4441 32.39 37.2537C32.4392 37.7326 32.6513 38.1749 32.9853 38.4952C33.3194 38.8155 33.7517 38.9912 34.1989 38.9882H34.3979C34.872 38.9295 35.3054 38.6711 35.6036 38.2696C35.9018 37.868 36.0406 37.3558 35.9897 36.8445C35.627 33.3291 34.3832 29.9863 32.3915 27.1745C30.3999 24.3627 27.7356 22.1879 24.6841 20.8832ZM17.9732 19.4995C16.5421 19.4995 15.1432 19.0423 13.9533 18.1857C12.7634 17.3291 11.836 16.1116 11.2884 14.6872C10.7407 13.2627 10.5975 11.6953 10.8766 10.1831C11.1558 8.67096 11.845 7.28193 12.8569 6.19171C13.8688 5.10149 15.158 4.35904 16.5616 4.05825C17.9651 3.75746 19.42 3.91184 20.7421 4.50186C22.0642 5.09188 23.1943 6.09105 23.9893 7.37302C24.7844 8.65498 25.2087 10.1622 25.2087 11.704C25.2087 13.7715 24.4464 15.7543 23.0895 17.2162C21.7326 18.6782 19.8922 19.4995 17.9732 19.4995Z" fill="#002044"/>
</svg>
