<svg width="41" height="41" viewBox="0 0 41 41" fill="none" xmlns="http://www.w3.org/2000/svg">
<path d="M39.2736 0.385168C37.8061 0.134882 36.3201 0.00605044 34.831 8.81862e-06C29.7504 -0.0041154 24.7757 1.43842 20.5 4.15568C16.2133 1.4741 11.2394 0.0669674 6.16901 0.101366C4.67992 0.107408 3.19391 0.23624 1.72641 0.486526C1.24572 0.568582 0.810415 0.817882 0.498885 1.18953C0.187355 1.56118 0.0200726 2.03075 0.0271638 2.51368V26.8395C0.0227792 27.1374 0.0847461 27.4326 0.208656 27.704C0.332565 27.9755 0.515371 28.2165 0.744068 28.4101C0.972764 28.6036 1.24173 28.7449 1.53183 28.8238C1.82192 28.9027 2.12602 28.9174 2.42249 28.8667C5.35628 28.3637 8.36207 28.4472 11.2628 29.1121C14.1635 29.7771 16.9005 31.0101 19.3126 32.7386L19.5583 32.8805H19.7835C20.0105 32.9741 20.254 33.0224 20.5 33.0224C20.746 33.0224 20.9895 32.9741 21.2166 32.8805H21.4418L21.6874 32.7386C24.0827 30.9715 26.8118 29.6985 29.7131 28.9951C32.6144 28.2917 35.6287 28.1722 38.5775 28.6437C38.874 28.6944 39.1781 28.6797 39.4682 28.6008C39.7583 28.5219 40.0272 28.3806 40.2559 28.1871C40.4846 27.9935 40.6674 27.7525 40.7913 27.481C40.9153 27.2096 40.9772 26.9144 40.9728 26.6166V2.29069C40.9515 1.82881 40.7714 1.38802 40.4623 1.04144C40.1533 0.694847 39.7338 0.463288 39.2736 0.385168ZM18.4527 27.3261C14.665 25.353 10.4489 24.3233 6.16901 24.3259C5.49341 24.3259 4.81781 24.3259 4.12173 24.3259V4.05432C4.80359 4.01541 5.48715 4.01541 6.16901 4.05432C10.5367 4.04954 14.809 5.31864 18.4527 7.7032V27.3261ZM36.8783 24.407C36.1822 24.407 35.5066 24.407 34.831 24.407C30.5511 24.4043 26.335 25.4341 22.5473 27.4071V7.7032C26.191 5.31864 30.4633 4.04954 34.831 4.05432C35.5128 4.01541 36.1964 4.01541 36.8783 4.05432V24.407ZM39.2736 32.8197C37.8061 32.5694 36.3201 32.4405 34.831 32.4345C29.7504 32.4304 24.7757 33.8729 20.5 36.5902C16.2243 33.8729 11.2496 32.4304 6.16901 32.4345C4.67992 32.4405 3.19391 32.5694 1.72641 32.8197C1.45991 32.8615 1.2044 32.9552 0.97457 33.0951C0.744741 33.2351 0.545129 33.4187 0.387213 33.6354C0.229296 33.852 0.116191 34.0975 0.0544004 34.3575C-0.00739001 34.6176 -0.0166462 34.8872 0.0271638 35.1509C0.131204 35.6773 0.441719 36.1414 0.890688 36.4416C1.33966 36.7418 1.89048 36.8535 2.42249 36.7523C5.35628 36.2494 8.36207 36.3328 11.2628 36.9978C14.1635 37.6627 16.9005 38.8958 19.3126 40.6242C19.6593 40.8686 20.0744 41 20.5 41C20.9256 41 21.3407 40.8686 21.6874 40.6242C24.0995 38.8958 26.8365 37.6627 29.7372 36.9978C32.6379 36.3328 35.6437 36.2494 38.5775 36.7523C39.1095 36.8535 39.6603 36.7418 40.1093 36.4416C40.5583 36.1414 40.8688 35.6773 40.9728 35.1509C41.0166 34.8872 41.0074 34.6176 40.9456 34.3575C40.8838 34.0975 40.7707 33.852 40.6128 33.6354C40.4549 33.4187 40.2553 33.2351 40.0254 33.0951C39.7956 32.9552 39.5401 32.8615 39.2736 32.8197Z" fill="#FAFAFA"/>
</svg>
