<svg width="19" height="14" viewBox="0 0 19 14" fill="none" xmlns="http://www.w3.org/2000/svg">
<path d="M18.5385 4.93342L17.6336 4.44975L9.48957 0.0527638H9.39003C9.33455 0.0299687 9.27699 0.0123028 9.2181 0H9.04617H8.88329C8.82147 0.0123109 8.7609 0.0299691 8.70231 0.0527638H8.60277L0.458734 4.44975C0.319473 4.52645 0.203639 4.63767 0.12305 4.77208C0.0424605 4.90649 0 5.05926 0 5.21482C0 5.37038 0.0424605 5.52316 0.12305 5.65757C0.203639 5.79197 0.319473 5.9032 0.458734 5.9799L2.71192 7.19347V11.3618C2.71192 12.0615 2.99793 12.7325 3.50703 13.2273C4.01613 13.722 4.70662 14 5.4266 14H12.6657C13.3857 14 14.0762 13.722 14.5853 13.2273C15.0944 12.7325 15.3804 12.0615 15.3804 11.3618V7.19347L17.1902 6.20854V8.72362C17.1902 8.95685 17.2855 9.18053 17.4552 9.34545C17.625 9.51036 17.8551 9.60301 18.0951 9.60301C18.3351 9.60301 18.5653 9.51036 18.735 9.34545C18.9047 9.18053 19 8.95685 19 8.72362V5.69849C18.9997 5.54267 18.9568 5.38971 18.8758 5.25528C18.7947 5.12085 18.6783 5.00977 18.5385 4.93342ZM13.5706 11.3618C13.5706 11.595 13.4753 11.8187 13.3056 11.9836C13.1359 12.1486 12.9057 12.2412 12.6657 12.2412H5.4266C5.18661 12.2412 4.95644 12.1486 4.78674 11.9836C4.61704 11.8187 4.52171 11.595 4.52171 11.3618V8.1696L8.60277 10.3681L8.73851 10.4209H8.81995C8.89506 10.4301 8.97106 10.4301 9.04617 10.4209C9.12128 10.4301 9.19728 10.4301 9.2724 10.4209H9.35384C9.40188 10.411 9.4478 10.3932 9.48957 10.3681L13.5706 8.1696V11.3618ZM9.04617 8.6005L2.76621 5.20603L9.04617 1.81156L15.3261 5.20603L9.04617 8.6005Z" fill="#FEFEFE"/>
</svg>
