<svg width="19" height="19" viewBox="0 0 19 19" fill="none" xmlns="http://www.w3.org/2000/svg">
<path d="M7.12435 7.91634H7.91602C8.12598 7.91634 8.32734 7.83293 8.47581 7.68447C8.62427 7.536 8.70768 7.33464 8.70768 7.12468C8.70768 6.91471 8.62427 6.71335 8.47581 6.56488C8.32734 6.41642 8.12598 6.33301 7.91602 6.33301H7.12435C6.91439 6.33301 6.71302 6.41642 6.56456 6.56488C6.41609 6.71335 6.33268 6.91471 6.33268 7.12468C6.33268 7.33464 6.41609 7.536 6.56456 7.68447C6.71302 7.83293 6.91439 7.91634 7.12435 7.91634V7.91634ZM7.12435 9.49968C6.91439 9.49968 6.71302 9.58308 6.56456 9.73155C6.41609 9.88002 6.33268 10.0814 6.33268 10.2913C6.33268 10.5013 6.41609 10.7027 6.56456 10.8511C6.71302 10.9996 6.91439 11.083 7.12435 11.083H11.8743C12.0843 11.083 12.2857 10.9996 12.4341 10.8511C12.5826 10.7027 12.666 10.5013 12.666 10.2913C12.666 10.0814 12.5826 9.88002 12.4341 9.73155C12.2857 9.58308 12.0843 9.49968 11.8743 9.49968H7.12435ZM15.8327 7.07717C15.8244 7.00445 15.8085 6.9328 15.7852 6.86343V6.79217C15.7471 6.71078 15.6963 6.63595 15.6348 6.57051V6.57051L10.8848 1.82051C10.8193 1.75893 10.7445 1.70816 10.6631 1.67009C10.6395 1.66673 10.6155 1.66673 10.5918 1.67009C10.5114 1.62397 10.4226 1.59436 10.3306 1.58301H5.54102C4.91113 1.58301 4.30704 1.83323 3.86164 2.27863C3.41624 2.72403 3.16602 3.32812 3.16602 3.95801V15.0413C3.16602 15.6712 3.41624 16.2753 3.86164 16.7207C4.30704 17.1661 4.91113 17.4163 5.54102 17.4163H13.4577C14.0876 17.4163 14.6917 17.1661 15.1371 16.7207C15.5825 16.2753 15.8327 15.6712 15.8327 15.0413V7.12468C15.8327 7.12468 15.8327 7.12467 15.8327 7.07717ZM11.0827 4.28259L13.1331 6.33301H11.8743C11.6644 6.33301 11.463 6.2496 11.3146 6.10113C11.1661 5.95267 11.0827 5.7513 11.0827 5.54134V4.28259ZM14.2493 15.0413C14.2493 15.2513 14.1659 15.4527 14.0175 15.6011C13.869 15.7496 13.6676 15.833 13.4577 15.833H5.54102C5.33105 15.833 5.12969 15.7496 4.98122 15.6011C4.83276 15.4527 4.74935 15.2513 4.74935 15.0413V3.95801C4.74935 3.74804 4.83276 3.54668 4.98122 3.39822C5.12969 3.24975 5.33105 3.16634 5.54102 3.16634H9.49935V5.54134C9.49935 6.17123 9.74957 6.77532 10.195 7.22072C10.6404 7.66612 11.2445 7.91634 11.8743 7.91634H14.2493V15.0413ZM11.8743 12.6663H7.12435C6.91439 12.6663 6.71302 12.7497 6.56456 12.8982C6.41609 13.0467 6.33268 13.248 6.33268 13.458C6.33268 13.668 6.41609 13.8693 6.56456 14.0178C6.71302 14.1663 6.91439 14.2497 7.12435 14.2497H11.8743C12.0843 14.2497 12.2857 14.1663 12.4341 14.0178C12.5826 13.8693 12.666 13.668 12.666 13.458C12.666 13.248 12.5826 13.0467 12.4341 12.8982C12.2857 12.7497 12.0843 12.6663 11.8743 12.6663Z" fill="#002044"/>
</svg>
