<svg width="19" height="19" viewBox="0 0 19 19" fill="none" xmlns="http://www.w3.org/2000/svg">
<path d="M7.12533 7.91683H7.91699C8.12696 7.91683 8.32832 7.83342 8.47678 7.68496C8.62525 7.53649 8.70866 7.33513 8.70866 7.12516C8.70866 6.9152 8.62525 6.71384 8.47678 6.56537C8.32832 6.4169 8.12696 6.3335 7.91699 6.3335H7.12533C6.91536 6.3335 6.714 6.4169 6.56553 6.56537C6.41707 6.71384 6.33366 6.9152 6.33366 7.12516C6.33366 7.33513 6.41707 7.53649 6.56553 7.68496C6.714 7.83342 6.91536 7.91683 7.12533 7.91683ZM7.12533 9.50016C6.91536 9.50016 6.714 9.58357 6.56553 9.73204C6.41707 9.8805 6.33366 10.0819 6.33366 10.2918C6.33366 10.5018 6.41707 10.7032 6.56553 10.8516C6.714 11.0001 6.91536 11.0835 7.12533 11.0835H11.8753C12.0853 11.0835 12.2867 11.0001 12.4351 10.8516C12.5836 10.7032 12.667 10.5018 12.667 10.2918C12.667 10.0819 12.5836 9.8805 12.4351 9.73204C12.2867 9.58357 12.0853 9.50016 11.8753 9.50016H7.12533ZM15.8337 7.07766C15.8254 7.00494 15.8095 6.93329 15.7862 6.86391V6.79266C15.7481 6.71126 15.6973 6.63644 15.6357 6.571L10.8857 1.821C10.8203 1.75942 10.7455 1.70864 10.6641 1.67058C10.6404 1.66722 10.6165 1.66722 10.5928 1.67058C10.5124 1.62446 10.4236 1.59485 10.3316 1.5835H5.54199C4.9121 1.5835 4.30801 1.83372 3.86261 2.27912C3.41721 2.72452 3.16699 3.32861 3.16699 3.9585V15.0418C3.16699 15.6717 3.41721 16.2758 3.86261 16.7212C4.30801 17.1666 4.9121 17.4168 5.54199 17.4168H13.4587C14.0885 17.4168 14.6926 17.1666 15.138 16.7212C15.5834 16.2758 15.8337 15.6717 15.8337 15.0418V7.12516C15.8337 7.12516 15.8337 7.12516 15.8337 7.07766ZM11.0837 4.28308L13.1341 6.3335H11.8753C11.6654 6.3335 11.464 6.25009 11.3155 6.10162C11.1671 5.95316 11.0837 5.75179 11.0837 5.54183V4.28308ZM14.2503 15.0418C14.2503 15.2518 14.1669 15.4532 14.0185 15.6016C13.87 15.7501 13.6686 15.8335 13.4587 15.8335H5.54199C5.33203 15.8335 5.13067 15.7501 4.9822 15.6016C4.83373 15.4532 4.75033 15.2518 4.75033 15.0418V3.9585C4.75033 3.74853 4.83373 3.54717 4.9822 3.3987C5.13067 3.25024 5.33203 3.16683 5.54199 3.16683H9.50033V5.54183C9.50033 6.17172 9.75055 6.77581 10.1959 7.22121C10.6413 7.66661 11.2454 7.91683 11.8753 7.91683H14.2503V15.0418ZM11.8753 12.6668H7.12533C6.91536 12.6668 6.714 12.7502 6.56553 12.8987C6.41707 13.0472 6.33366 13.2485 6.33366 13.4585C6.33366 13.6685 6.41707 13.8698 6.56553 14.0183C6.714 14.1668 6.91536 14.2502 7.12533 14.2502H11.8753C12.0853 14.2502 12.2867 14.1668 12.4351 14.0183C12.5836 13.8698 12.667 13.6685 12.667 13.4585C12.667 13.2485 12.5836 13.0472 12.4351 12.8987C12.2867 12.7502 12.0853 12.6668 11.8753 12.6668Z" fill="#FAFAFA"/>
</svg>
