<svg width="19" height="24" viewBox="0 0 19 24" fill="none" xmlns="http://www.w3.org/2000/svg">
<path d="M19 12C19 12.3183 18.8749 12.6235 18.6522 12.8485C18.4295 13.0736 18.1274 13.2 17.8125 13.2H8.79937L11.5306 15.948C11.6419 16.0596 11.7303 16.1923 11.7906 16.3385C11.8508 16.4847 11.8819 16.6416 11.8819 16.8C11.8819 16.9584 11.8508 17.1153 11.7906 17.2615C11.7303 17.4077 11.6419 17.5404 11.5306 17.652C11.4202 17.7645 11.2889 17.8537 11.1442 17.9147C10.9995 17.9756 10.8443 18.007 10.6875 18.007C10.5307 18.007 10.3755 17.9756 10.2308 17.9147C10.0861 17.8537 9.95477 17.7645 9.84437 17.652L5.09437 12.852C4.98626 12.7379 4.90152 12.6033 4.845 12.456C4.72623 12.1638 4.72623 11.8362 4.845 11.544C4.90152 11.3967 4.98626 11.2621 5.09437 11.148L9.84437 6.348C9.9551 6.23611 10.0865 6.14736 10.2312 6.08681C10.3759 6.02626 10.5309 5.99509 10.6875 5.99509C10.8441 5.99509 10.9991 6.02626 11.1438 6.08681C11.2885 6.14736 11.4199 6.23611 11.5306 6.348C11.6413 6.45989 11.7292 6.59271 11.7891 6.7389C11.849 6.88509 11.8799 7.04177 11.8799 7.2C11.8799 7.35823 11.849 7.51491 11.7891 7.6611C11.7292 7.80729 11.6413 7.94011 11.5306 8.052L8.79937 10.8H17.8125C18.1274 10.8 18.4295 10.9264 18.6522 11.1515C18.8749 11.3765 19 11.6817 19 12ZM3.5625 0H15.4375C16.3823 0 17.2885 0.379285 17.9566 1.05442C18.6247 1.72955 19 2.64522 19 3.6V7.2C19 7.51826 18.8749 7.82348 18.6522 8.04853C18.4295 8.27357 18.1274 8.4 17.8125 8.4C17.4976 8.4 17.1955 8.27357 16.9728 8.04853C16.7501 7.82348 16.625 7.51826 16.625 7.2V3.6C16.625 3.28174 16.4999 2.97652 16.2772 2.75147C16.0545 2.52643 15.7524 2.4 15.4375 2.4H3.5625C3.24756 2.4 2.94551 2.52643 2.72281 2.75147C2.50011 2.97652 2.375 3.28174 2.375 3.6V20.4C2.375 20.7183 2.50011 21.0235 2.72281 21.2485C2.94551 21.4736 3.24756 21.6 3.5625 21.6H15.4375C15.7524 21.6 16.0545 21.4736 16.2772 21.2485C16.4999 21.0235 16.625 20.7183 16.625 20.4V16.8C16.625 16.4817 16.7501 16.1765 16.9728 15.9515C17.1955 15.7264 17.4976 15.6 17.8125 15.6C18.1274 15.6 18.4295 15.7264 18.6522 15.9515C18.8749 16.1765 19 16.4817 19 16.8V20.4C19 21.3548 18.6247 22.2705 17.9566 22.9456C17.2885 23.6207 16.3823 24 15.4375 24H3.5625C2.61767 24 1.71153 23.6207 1.04343 22.9456C0.375334 22.2705 0 21.3548 0 20.4V3.6C0 2.64522 0.375334 1.72955 1.04343 1.05442C1.71153 0.379285 2.61767 0 3.5625 0Z" fill="#FAFAFA"/>
</svg>
