<svg width="19" height="23" viewBox="0 0 19 23" fill="none" xmlns="http://www.w3.org/2000/svg">
<path d="M16.625 12.8886V9.2226C16.6233 7.58919 16.0262 6.00906 14.9395 4.76206C13.8528 3.51505 12.3465 2.68164 10.6875 2.4094V1.15282C10.6875 0.847076 10.5624 0.553851 10.3397 0.337654C10.117 0.121458 9.81494 0 9.5 0C9.18506 0 8.88301 0.121458 8.66031 0.337654C8.43761 0.553851 8.3125 0.847076 8.3125 1.15282V2.4094C6.65349 2.68164 5.14725 3.51505 4.06052 4.76206C2.97379 6.00906 2.37671 7.58919 2.375 9.2226V12.8886C1.68204 13.1264 1.08181 13.5665 0.656614 14.1485C0.231418 14.7306 0.00206567 15.426 0 16.1395V18.4452C0 18.7509 0.125111 19.0442 0.347811 19.2604C0.57051 19.4766 0.872555 19.598 1.1875 19.598H4.91625C5.18971 20.5749 5.78669 21.4373 6.61508 22.0521C7.44348 22.6669 8.45725 23 9.5 23C10.5427 23 11.5565 22.6669 12.3849 22.0521C13.2133 21.4373 13.8103 20.5749 14.0837 19.598H17.8125C18.1274 19.598 18.4295 19.4766 18.6522 19.2604C18.8749 19.0442 19 18.7509 19 18.4452V16.1395C18.9979 15.426 18.7686 14.7306 18.3434 14.1485C17.9182 13.5665 17.318 13.1264 16.625 12.8886ZM4.75 9.2226C4.75 7.9996 5.25044 6.8267 6.14124 5.96192C7.03204 5.09713 8.24022 4.6113 9.5 4.6113C10.7598 4.6113 11.968 5.09713 12.8588 5.96192C13.7496 6.8267 14.25 7.9996 14.25 9.2226V12.6811H4.75V9.2226ZM9.5 20.7508C9.08553 20.7484 8.67893 20.6407 8.32061 20.4385C7.96229 20.2362 7.66473 19.9465 7.4575 19.598H11.5425C11.3353 19.9465 11.0377 20.2362 10.6794 20.4385C10.3211 20.6407 9.91447 20.7484 9.5 20.7508ZM16.625 17.2924H2.375V16.1395C2.375 15.8338 2.50011 15.5406 2.72281 15.3244C2.94551 15.1082 3.24756 14.9867 3.5625 14.9867H15.4375C15.7524 14.9867 16.0545 15.1082 16.2772 15.3244C16.4999 15.5406 16.625 15.8338 16.625 16.1395V17.2924Z" fill="#002044"/>
</svg>
