<svg width="26" height="41" viewBox="0 0 26 41" fill="none" xmlns="http://www.w3.org/2000/svg">
<path d="M20.4286 0H5.57144C4.0938 0 2.67669 0.647816 1.63185 1.80094C0.587002 2.95406 1.46397e-05 4.51802 1.46397e-05 6.14878V38.9423C-0.00128456 39.3034 0.0839103 39.6585 0.246973 39.9717C0.410037 40.2848 0.645177 40.5448 0.928585 40.7254C1.21091 40.9053 1.53116 41 1.85716 41C2.18315 41 2.5034 40.9053 2.78573 40.7254L13 34.2077L23.2143 40.7254C23.4973 40.9025 23.8175 40.9943 24.1428 40.9919C24.4682 40.9943 24.7884 40.9025 25.0714 40.7254C25.3548 40.5448 25.59 40.2848 25.753 39.9717C25.9161 39.6585 26.0013 39.3034 26 38.9423V6.14878C26 4.51802 25.413 2.95406 24.3682 1.80094C23.3233 0.647816 21.9062 0 20.4286 0ZM22.2857 35.3965L13.9286 30.0675C13.6462 29.8876 13.326 29.7929 13 29.7929C12.674 29.7929 12.3538 29.8876 12.0714 30.0675L3.7143 35.3965V6.14878C3.7143 5.60519 3.90996 5.08387 4.25824 4.6995C4.60652 4.31512 5.07889 4.09919 5.57144 4.09919H20.4286C20.9211 4.09919 21.3935 4.31512 21.7418 4.6995C22.09 5.08387 22.2857 5.60519 22.2857 6.14878V35.3965Z" fill="#FAFAFA"/>
</svg>
