<svg width="31" height="41" viewBox="0 0 31 41" fill="none" xmlns="http://www.w3.org/2000/svg">
<path d="M25.1875 0H1.9375C1.42364 0 0.930833 0.215981 0.567481 0.600431C0.204129 0.984881 0 1.50631 0 2.05V38.95C0 39.4937 0.204129 40.0151 0.567481 40.3996C0.930833 40.784 1.42364 41 1.9375 41H25.1875C26.7291 41 28.2075 40.3521 29.2976 39.1987C30.3876 38.0454 31 36.4811 31 34.85V6.15C31 4.51892 30.3876 2.95464 29.2976 1.80129C28.2075 0.647945 26.7291 0 25.1875 0ZM7.75 36.9H3.875V4.1H7.75V36.9ZM27.125 34.85C27.125 35.3937 26.9209 35.9151 26.5575 36.2996C26.1942 36.684 25.7014 36.9 25.1875 36.9H11.625V4.1H25.1875C25.7014 4.1 26.1942 4.31598 26.5575 4.70043C26.9209 5.08488 27.125 5.60631 27.125 6.15V34.85Z" fill="#FAFAFA"/>
</svg>
