<svg width="621" height="41" viewBox="0 0 621 41" fill="none" xmlns="http://www.w3.org/2000/svg">
<path d="M36.4 13.024C35.344 9.904 33.328 7.312 30.352 5.152C27.376 2.992 23.728 1.888 19.456 1.888C14.224 1.888 9.76 3.76 5.968 7.456C2.176 11.152 0.304 15.76 0.304 21.28C0.304 26.8 2.08 31.408 5.632 35.008C9.184 38.608 13.792 40.432 19.408 40.432C24.736 40.432 28.96 38.8 32.128 35.536C35.344 32.224 36.928 28.144 36.928 23.248V21.184H17.056V26.56H30.544C29.632 31.504 25.696 35.008 19.36 35.008C15.616 35.008 12.544 33.664 10.096 31.024C7.648 28.384 6.448 25.072 6.448 21.136C6.448 17.2 7.696 13.936 10.144 11.296C12.64 8.656 15.712 7.36 19.408 7.36C25.36 7.36 29.2 10.624 31.168 15.424L36.4 13.024ZM66.3299 28.864C66.3779 28.432 66.4259 27.856 66.4259 27.088C66.4259 23.104 65.3219 19.936 63.1139 17.488C60.9059 15.04 57.8339 13.84 53.9459 13.84C50.2499 13.84 47.1779 15.136 44.7299 17.728C42.2819 20.32 41.0339 23.44 41.0339 27.136C41.0339 30.928 42.3299 34.144 44.8739 36.688C47.4659 39.232 50.6819 40.48 54.4739 40.48C59.0819 40.48 63.2579 38.272 65.4179 34.288L61.2899 31.552C59.8979 34.192 57.5939 35.536 54.3779 35.536C52.4099 35.536 50.6819 34.912 49.1939 33.664C47.7059 32.368 46.9379 30.784 46.8899 28.864H66.3299ZM53.9459 18.736C57.5939 18.736 60.4259 20.944 60.6179 24.544H47.1779C47.7059 21.04 50.4419 18.736 53.9459 18.736ZM85.7455 19.504V14.368H79.4575V6.448H73.7455V14.368H69.0415V19.504H73.7455V31.744C73.7455 37.312 77.0095 40.288 82.6255 40.288C83.7295 40.288 84.7855 40.096 85.6975 39.76V34.912C85.0735 35.056 84.4495 35.104 83.8735 35.104C80.9455 35.104 79.4575 33.904 79.4575 30.832V19.504H85.7455ZM118.371 19.504V14.368H112.083V6.448H106.371V14.368H101.667V19.504H106.371V31.744C106.371 37.312 109.635 40.288 115.251 40.288C116.355 40.288 117.411 40.096 118.323 39.76V34.912C117.699 35.056 117.075 35.104 116.499 35.104C113.571 35.104 112.083 33.904 112.083 30.832V19.504H118.371ZM135.757 13.84C132.013 13.84 128.797 15.136 126.157 17.68C123.517 20.224 122.173 23.392 122.173 27.136C122.173 30.88 123.469 34.048 126.109 36.592C128.749 39.136 131.965 40.432 135.709 40.432C139.501 40.432 142.669 39.136 145.261 36.592C147.901 34 149.197 30.832 149.197 27.04C149.197 23.296 147.901 20.176 145.261 17.632C142.621 15.088 139.453 13.84 135.757 13.84ZM130.141 21.376C131.581 19.792 133.453 19.024 135.709 19.024C137.965 19.024 139.837 19.792 141.229 21.376C142.669 22.96 143.389 24.88 143.389 27.136C143.389 29.392 142.669 31.312 141.277 32.896C139.885 34.48 138.013 35.248 135.757 35.248C133.501 35.248 131.629 34.432 130.189 32.848C128.749 31.216 128.029 29.296 128.029 27.04C128.029 24.784 128.749 22.912 130.141 21.376ZM167.824 40H173.536V27.472H173.68L184.384 40H191.92L179.728 25.984L191.296 14.368H183.52L173.584 24.448H173.536V0.927999H167.824V40ZM218.66 40V24.208C218.66 18.064 215.348 13.84 209.06 13.84C205.796 13.84 203.204 15.184 201.236 17.824V14.368H195.668V40H201.38V25.744C201.38 21.856 203.684 19.264 207.284 19.264C211.076 19.264 212.948 21.808 212.948 25.648V40H218.66ZM237.851 13.84C234.107 13.84 230.891 15.136 228.251 17.68C225.611 20.224 224.267 23.392 224.267 27.136C224.267 30.88 225.563 34.048 228.203 36.592C230.843 39.136 234.059 40.432 237.803 40.432C241.595 40.432 244.763 39.136 247.355 36.592C249.995 34 251.291 30.832 251.291 27.04C251.291 23.296 249.995 20.176 247.355 17.632C244.715 15.088 241.547 13.84 237.851 13.84ZM232.235 21.376C233.675 19.792 235.547 19.024 237.803 19.024C240.059 19.024 241.931 19.792 243.323 21.376C244.763 22.96 245.483 24.88 245.483 27.136C245.483 29.392 244.763 31.312 243.371 32.896C241.979 34.48 240.107 35.248 237.851 35.248C235.595 35.248 233.723 34.432 232.283 32.848C230.843 31.216 230.123 29.296 230.123 27.04C230.123 24.784 230.843 22.912 232.235 21.376ZM288.187 14.368L282.811 32.512H282.715L276.859 14.368H271.099L265.291 32.464H265.243L259.867 14.368H253.867L262.075 40H267.931L273.883 22H273.979L279.883 40H285.835L294.043 14.368H288.187ZM326.183 22.624C326.183 24.064 325.367 24.784 323.783 24.784H320.615C316.103 24.784 309.959 26.656 309.959 32.608V32.896C309.959 35.104 310.775 36.928 312.407 38.32C314.039 39.712 316.103 40.432 318.599 40.432C322.055 40.432 324.551 39.136 326.135 36.496V40H331.751V23.68C331.751 21.904 331.463 20.368 330.887 19.072C329.303 15.568 326.087 13.84 321.287 13.84C316.055 13.84 312.407 16 310.391 20.368L314.759 22.864C316.055 20.128 318.215 18.784 321.143 18.784C324.359 18.784 326.183 20.512 326.183 22.624ZM326.135 29.632C326.135 33.472 323.639 35.872 319.751 35.872C317.303 35.872 315.671 34.48 315.671 32.368C315.671 31.264 316.199 30.4 317.207 29.776C318.263 29.152 319.415 28.816 320.615 28.816H326.135V29.632ZM365.889 27.088C365.889 23.68 364.737 20.608 362.385 17.92C360.081 15.232 357.057 13.888 353.313 13.888C351.825 13.888 350.241 14.272 348.561 15.04C346.881 15.76 345.681 16.816 344.865 18.16V0.927999H339.153V40H344.721V36.064C345.537 37.408 346.785 38.464 348.465 39.232C350.145 40 351.729 40.384 353.169 40.384C356.865 40.384 359.889 39.088 362.289 36.448C364.689 33.808 365.889 30.688 365.889 27.088ZM346.881 21.376C348.321 19.792 350.193 19.024 352.449 19.024C354.705 19.024 356.577 19.792 357.969 21.376C359.409 22.96 360.129 24.88 360.129 27.136C360.129 29.392 359.409 31.312 357.969 32.896C356.577 34.432 354.705 35.2 352.449 35.2C350.193 35.2 348.321 34.432 346.881 32.896C345.489 31.312 344.769 29.392 344.769 27.136C344.769 24.88 345.489 22.96 346.881 21.376ZM383.632 13.84C379.888 13.84 376.672 15.136 374.032 17.68C371.392 20.224 370.048 23.392 370.048 27.136C370.048 30.88 371.344 34.048 373.984 36.592C376.624 39.136 379.84 40.432 383.584 40.432C387.376 40.432 390.544 39.136 393.136 36.592C395.776 34 397.072 30.832 397.072 27.04C397.072 23.296 395.776 20.176 393.136 17.632C390.496 15.088 387.328 13.84 383.632 13.84ZM378.016 21.376C379.456 19.792 381.328 19.024 383.584 19.024C385.84 19.024 387.712 19.792 389.104 21.376C390.544 22.96 391.264 24.88 391.264 27.136C391.264 29.392 390.544 31.312 389.152 32.896C387.76 34.48 385.888 35.248 383.632 35.248C381.376 35.248 379.504 34.432 378.064 32.848C376.624 31.216 375.904 29.296 375.904 27.04C375.904 24.784 376.624 22.912 378.016 21.376ZM402.755 14.368V30.112C402.755 36.256 406.163 40.528 412.355 40.528C415.619 40.528 418.211 39.184 420.179 36.544V40H425.747V14.368H420.035V28.624C420.035 32.512 417.731 35.104 414.131 35.104C410.339 35.104 408.467 32.56 408.467 28.72V14.368H402.755ZM447.386 19.504V14.368H441.098V6.448H435.386V14.368H430.682V19.504H435.386V31.744C435.386 37.312 438.65 40.288 444.266 40.288C445.37 40.288 446.426 40.096 447.338 39.76V34.912C446.714 35.056 446.09 35.104 445.514 35.104C442.586 35.104 441.098 33.904 441.098 30.832V19.504H447.386ZM460.891 40H466.939L470.395 31.168H488.827L492.235 40H498.379L483.163 2.416H476.203L460.891 40ZM479.611 8.08L486.763 25.936H472.507L479.611 8.08ZM502.036 14.368V30.112C502.036 36.256 505.444 40.528 511.636 40.528C514.9 40.528 517.492 39.184 519.46 36.544V40H525.028V14.368H519.316V28.624C519.316 32.512 517.012 35.104 513.412 35.104C509.62 35.104 507.748 32.56 507.748 28.72V14.368H502.036ZM546.715 14.272C546.379 14.176 545.947 14.128 545.323 14.128C542.203 14.128 539.851 15.568 538.267 18.448V14.368H532.699V40H538.411V26.992C538.411 22.528 540.715 19.984 545.083 19.984C545.707 19.984 546.235 20.032 546.715 20.128V14.272ZM562.789 13.84C559.045 13.84 555.829 15.136 553.189 17.68C550.549 20.224 549.205 23.392 549.205 27.136C549.205 30.88 550.501 34.048 553.141 36.592C555.781 39.136 558.997 40.432 562.741 40.432C566.533 40.432 569.701 39.136 572.293 36.592C574.933 34 576.229 30.832 576.229 27.04C576.229 23.296 574.933 20.176 572.293 17.632C569.653 15.088 566.485 13.84 562.789 13.84ZM557.173 21.376C558.613 19.792 560.485 19.024 562.741 19.024C564.997 19.024 566.869 19.792 568.261 21.376C569.701 22.96 570.421 24.88 570.421 27.136C570.421 29.392 569.701 31.312 568.309 32.896C566.917 34.48 565.045 35.248 562.789 35.248C560.533 35.248 558.661 34.432 557.221 32.848C555.781 31.216 555.061 29.296 555.061 27.04C555.061 24.784 555.781 22.912 557.173 21.376ZM596.215 14.272C595.879 14.176 595.447 14.128 594.823 14.128C591.703 14.128 589.351 15.568 587.767 18.448V14.368H582.199V40H587.911V26.992C587.911 22.528 590.215 19.984 594.583 19.984C595.207 19.984 595.735 20.032 596.215 20.128V14.272ZM615.214 22.624C615.214 24.064 614.398 24.784 612.814 24.784H609.646C605.134 24.784 598.99 26.656 598.99 32.608V32.896C598.99 35.104 599.806 36.928 601.438 38.32C603.07 39.712 605.134 40.432 607.63 40.432C611.086 40.432 613.582 39.136 615.166 36.496V40H620.782V23.68C620.782 21.904 620.494 20.368 619.918 19.072C618.334 15.568 615.118 13.84 610.318 13.84C605.086 13.84 601.438 16 599.422 20.368L603.79 22.864C605.086 20.128 607.246 18.784 610.174 18.784C613.39 18.784 615.214 20.512 615.214 22.624ZM615.166 29.632C615.166 33.472 612.67 35.872 608.782 35.872C606.334 35.872 604.702 34.48 604.702 32.368C604.702 31.264 605.23 30.4 606.238 29.776C607.294 29.152 608.446 28.816 609.646 28.816H615.166V29.632Z" fill="#FAFAFA"/>
</svg>
