<svg width="112" height="85" viewBox="0 0 112 85" fill="none" xmlns="http://www.w3.org/2000/svg">
<path d="M63.8 0.479996C63.9867 0.559996 64.1467 0.693329 64.28 0.879995C64.44 1.04 64.56 1.30666 64.64 1.68C64.72 2.02667 64.7467 2.45333 64.72 2.96C64.6933 3.46667 64.6 4.13333 64.44 4.96C64.28 5.76 64.04 6.69333 63.72 7.76C63.4267 8.82666 63.0267 10.1067 62.52 11.6C62.0133 13.0933 61.4133 14.76 60.72 16.6C56.8533 26.8667 53.2 36.6133 49.76 45.84C51.3333 45.68 52.5867 45.5733 53.52 45.52C54.0267 45.4933 54.28 45.72 54.28 46.2C54.3067 46.3333 54.28 46.4533 54.2 46.56C54.1467 46.6667 54.0667 46.76 53.96 46.84C53.8533 46.8933 53.7333 46.9333 53.6 46.96C52.3733 47.04 50.8933 47.1733 49.16 47.36C44.9733 58.6133 42.4667 65.4 41.64 67.72C40.8133 70.04 40.1467 71.6 39.64 72.4C39.16 73.2267 38.52 73.44 37.72 73.04C36.9467 72.6667 37.68 70.2133 39.92 65.68C42.1867 61.1733 44.7333 55.1333 47.56 47.56C40.4667 48.4667 33.9333 49.8133 27.96 51.6C26.2 54.7467 24.5867 57.56 23.12 60.04C21.6533 62.5467 20.1067 65.0933 18.48 67.68C16.88 70.2933 15.4 72.5467 14.04 74.44C12.68 76.3333 11.3467 78.04 10.04 79.56C8.76 81.1067 7.56 82.2667 6.44 83.04C5.34667 83.84 4.38667 84.24 3.56 84.24C3.32 84.24 3.10667 84.2133 2.92 84.16C0.946667 83.6267 -0.0133333 80.7867 0.04 75.64C0.0666667 72.9733 0.6 70.4667 1.64 68.12C2.68 65.7733 4.04 63.72 5.72 61.96C7.4 60.2 9.42667 58.5467 11.8 57C14.2 55.48 16.6267 54.1867 19.08 53.12C21.5333 52.08 24.2 51.1333 27.08 50.28C27.4533 49.6133 27.7067 49.1467 27.84 48.88C29.04 46.7467 29.8133 45.3867 30.16 44.8C30.3733 44.4267 31.12 43.2133 32.4 41.16C33.7067 39.08 35.5067 36.2267 37.8 32.6C40.12 28.9467 42.5733 25.24 45.16 21.48C47.7467 17.72 50.28 14.16 52.76 10.8C55.2667 7.41333 57.52 4.74666 59.52 2.8C61.5467 0.853331 62.9733 0.0799961 63.8 0.479996ZM3.28 82.76C3.97333 82.9467 4.88 82.6 6 81.72C7.12 80.8667 8.36 79.56 9.72 77.8C11.1067 76.04 12.4933 74.16 13.88 72.16C15.2667 70.1867 16.7333 67.9067 18.28 65.32C19.8533 62.7333 21.2133 60.4533 22.36 58.48C23.5067 56.5333 24.7067 54.4533 25.96 52.24C23.32 53.0933 20.88 54.0267 18.64 55.04C16.4 56.08 14.2 57.3067 12.04 58.72C9.88 60.1333 8.04 61.6533 6.52 63.28C5.02667 64.9067 3.81333 66.7733 2.88 68.88C1.97333 71.0133 1.50667 73.2667 1.48 75.64C1.45333 80.0667 2.05333 82.44 3.28 82.76ZM48.16 46C51.2533 37.7333 55 27.76 59.4 16.08C60.28 13.7333 61.0133 11.6533 61.6 9.84C62.1867 8.02666 62.5867 6.65333 62.8 5.72C63.04 4.76 63.1867 3.96 63.24 3.32C63.32 2.68 63.3333 2.28 63.28 2.12C63.2533 1.93333 63.2133 1.81333 63.16 1.76C63.1333 1.76 63.0933 1.76 63.04 1.76C62.1867 1.76 60.3333 3.52 57.48 7.04C54.6267 10.56 51.52 14.76 48.16 19.64C44.8 24.52 41.5733 29.3467 38.48 34.12C35.4133 38.8667 33.0533 42.6667 31.4 45.52C31.0533 46.1067 30.2933 47.4533 29.12 49.56C29.0933 49.5867 29.0667 49.6133 29.04 49.64C29.04 49.6667 29.04 49.68 29.04 49.68C34.96 48.0267 41.3333 46.8 48.16 46ZM67.9675 45.52C68.1542 45.52 68.3142 45.6 68.4475 45.76C68.5808 45.8933 68.6475 46.0667 68.6475 46.28C68.6475 46.4667 68.5675 46.6267 68.4075 46.76C67.3408 47.72 66.3808 48.5333 65.5275 49.2C64.6742 49.8667 63.9675 50.36 63.4075 50.68C62.8475 51 62.3542 51.2133 61.9275 51.32C61.5275 51.4267 61.2075 51.4667 60.9675 51.44C60.7275 51.3867 60.5142 51.28 60.3275 51.12C59.8475 50.7733 59.6475 50.12 59.7275 49.16C59.0608 49.8 58.2608 50.5067 57.3275 51.28C56.4475 52 55.7142 52.36 55.1275 52.36C54.8608 52.36 54.6075 52.28 54.3675 52.12C53.1142 51.2133 53.7142 47.6933 56.1675 41.56C56.2475 41.3733 56.3808 41.24 56.5675 41.16C56.7542 41.08 56.9408 41.08 57.1275 41.16C57.3142 41.2133 57.4475 41.3333 57.5275 41.52C57.6075 41.7067 57.6075 41.8933 57.5275 42.08C56.7008 44.1067 56.0608 46 55.6075 47.76C55.1542 49.52 55.0342 50.5867 55.2475 50.96C55.2475 50.96 55.2875 50.9467 55.3675 50.92C55.4475 50.8667 55.5808 50.7733 55.7675 50.64C55.9542 50.5067 56.1675 50.3467 56.4075 50.16C58.4608 48.4533 59.8608 47.1067 60.6075 46.12C60.7408 45.8 60.9008 45.4667 61.0875 45.12C61.1942 44.8533 61.3808 44.7067 61.6475 44.68C61.9408 44.6533 62.1675 44.76 62.3275 45C62.5942 45.4267 62.4475 46.04 61.8875 46.84C61.5942 47.5867 61.3808 48.2667 61.2475 48.88C61.1142 49.4667 61.1008 49.84 61.2075 50C61.2608 50 61.3142 50 61.3675 50C61.4475 50 61.6342 49.9333 61.9275 49.8C62.2475 49.6667 62.6075 49.4667 63.0075 49.2C63.4342 48.9333 64.0342 48.5067 64.8075 47.92C65.6075 47.3067 66.4875 46.56 67.4475 45.68C67.6075 45.5467 67.7808 45.4933 67.9675 45.52ZM75.5819 45.56C75.7685 45.48 75.9552 45.48 76.1419 45.56C76.3285 45.64 76.4485 45.7733 76.5019 45.96C76.5819 46.1467 76.5819 46.3333 76.5019 46.52C76.3152 46.9733 76.1019 47.4667 75.8619 48C75.6219 48.5333 75.2485 49.28 74.7419 50.24C74.2352 51.1733 73.7419 51.9867 73.2619 52.68C72.7819 53.4 72.2352 54.04 71.6219 54.6C71.0085 55.16 70.4352 55.4533 69.9019 55.48C69.8752 55.48 69.8485 55.48 69.8219 55.48C69.3419 55.48 68.9685 55.28 68.7019 54.88C67.9019 53.7867 68.3819 50.8933 70.1419 46.2C69.6619 46.28 69.1819 46.28 68.7019 46.2C68.0352 47.6933 67.2085 49.2667 66.2219 50.92C66.1152 51.08 65.9685 51.1867 65.7819 51.24C65.5685 51.2933 65.3819 51.28 65.2219 51.2C65.0619 51.0933 64.9552 50.9467 64.9019 50.76C64.8485 50.5467 64.8752 50.36 64.9819 50.2C65.8885 48.68 66.6752 47.1733 67.3419 45.68C67.0485 45.4667 66.7552 45.2133 66.4619 44.92C65.5285 43.9867 65.3285 43 65.8619 41.96C66.1285 41.4533 66.5419 41.0533 67.1019 40.76C67.6619 40.44 68.1952 40.3333 68.7019 40.44C69.4485 40.5733 69.8752 41.04 69.9819 41.84C70.0352 42.48 69.8085 43.48 69.3019 44.84C69.8885 44.8933 70.4619 44.6933 71.0219 44.24C71.2885 44 71.5685 44 71.8619 44.24C72.1819 44.4533 72.2752 44.7333 72.1419 45.08C71.2885 47.16 70.6352 49.1067 70.1819 50.92C69.7285 52.7067 69.6219 53.76 69.8619 54.08C70.4485 54.0267 71.2752 53.1733 72.3419 51.52C73.4085 49.84 74.3552 47.9867 75.1819 45.96C75.2619 45.7733 75.3952 45.64 75.5819 45.56ZM67.9419 44.32C68.3952 43.2 68.5952 42.4267 68.5419 42C68.4619 41.9467 68.3552 41.92 68.2219 41.92C67.7419 41.92 67.3819 42.16 67.1419 42.64C66.9285 43.04 67.0352 43.4667 67.4619 43.92C67.6219 44.08 67.7819 44.2133 67.9419 44.32ZM88 45.56C88.2133 45.48 88.4 45.4933 88.56 45.6C88.7467 45.68 88.8667 45.8133 88.92 46C88.9733 46.1333 88.9867 46.2667 88.96 46.4C88.9333 46.5067 88.8667 46.6133 88.76 46.72C88.68 46.8 88.5867 46.8667 88.48 46.92C86.1867 47.6667 84.3333 48 82.92 47.92C82.8133 48.2133 82.68 48.5333 82.52 48.88C82.3067 49.36 81.88 49.9333 81.24 50.6C80.6267 51.2667 79.8667 51.8667 78.96 52.4C78.08 52.9333 77.28 53.2 76.56 53.2C76.3467 53.2 76.1333 53.1733 75.92 53.12C74.48 52.6933 73.9733 51.04 74.4 48.16C74.8267 45.2267 75.9467 43.0933 77.76 41.76C78.1867 41.44 78.6533 41.1733 79.16 40.96C79.6933 40.7467 80.1467 40.6 80.52 40.52C80.92 40.44 81.32 40.4 81.72 40.4C82.12 40.3733 82.3867 40.3733 82.52 40.4C82.68 40.4 82.8 40.4 82.88 40.4C83.0133 40.4267 83.1333 40.48 83.24 40.56C83.3467 40.64 83.4133 40.7467 83.44 40.88C83.4933 40.9867 83.5067 41.1067 83.48 41.24C83.4533 41.4267 83.36 41.5867 83.2 41.72C83.04 41.8267 82.8667 41.8667 82.68 41.84C82.5733 41.8667 82.3467 41.8533 82 41.8C81.68 41.7467 81.16 41.8267 80.44 42.04C79.7467 42.2267 79.1333 42.52 78.6 42.92C77.1067 44.0133 76.1733 45.8267 75.8 48.36C75.5067 50.4133 75.68 51.5333 76.32 51.72C76.9333 51.9067 77.8267 51.5467 79 50.64C80.1733 49.7333 80.92 48.9467 81.24 48.28C81.32 48.0667 81.4 47.8667 81.48 47.68C80.8667 47.4667 80.3733 47.1333 80 46.68C79.7333 46.36 79.6133 45.9067 79.64 45.32C79.6667 44.7333 79.8267 44.2667 80.12 43.92C80.7067 43.2 81.48 43.12 82.44 43.68C83.32 44.2133 83.6267 45.16 83.36 46.52C84.56 46.4933 86.1067 46.1733 88 45.56ZM81.92 46.32C82.1067 45.5733 82.0267 45.1067 81.68 44.92C81.5467 44.84 81.4267 44.8 81.32 44.8C81.2933 44.8 81.2667 44.8 81.24 44.8C81.16 44.9067 81.1067 45.08 81.08 45.32C81.0533 45.5333 81.0667 45.6933 81.12 45.8C81.3067 46.0133 81.5733 46.1867 81.92 46.32ZM95.8944 45.56C96.081 45.48 96.2677 45.48 96.4544 45.56C96.641 45.64 96.761 45.7733 96.8144 45.96C96.8944 46.1467 96.8944 46.3333 96.8144 46.52C96.6277 46.9733 96.4144 47.4667 96.1744 48C95.9344 48.5333 95.561 49.28 95.0544 50.24C94.5477 51.1733 94.0544 51.9867 93.5744 52.68C93.0944 53.4 92.5477 54.04 91.9344 54.6C91.321 55.16 90.7477 55.4533 90.2144 55.48C90.1877 55.48 90.161 55.48 90.1344 55.48C89.6544 55.48 89.281 55.28 89.0144 54.88C88.2144 53.7867 88.6944 50.8933 90.4544 46.2C89.9744 46.28 89.4944 46.28 89.0144 46.2C88.3477 47.6933 87.521 49.2667 86.5344 50.92C86.4277 51.08 86.281 51.1867 86.0944 51.24C85.881 51.2933 85.6944 51.28 85.5344 51.2C85.3744 51.0933 85.2677 50.9467 85.2144 50.76C85.161 50.5467 85.1877 50.36 85.2944 50.2C86.201 48.68 86.9877 47.1733 87.6544 45.68C87.361 45.4667 87.0677 45.2133 86.7744 44.92C85.841 43.9867 85.641 43 86.1744 41.96C86.441 41.4533 86.8544 41.0533 87.4144 40.76C87.9744 40.44 88.5077 40.3333 89.0144 40.44C89.761 40.5733 90.1877 41.04 90.2944 41.84C90.3477 42.48 90.121 43.48 89.6144 44.84C90.201 44.8933 90.7744 44.6933 91.3344 44.24C91.601 44 91.881 44 92.1744 44.24C92.4944 44.4533 92.5877 44.7333 92.4544 45.08C91.601 47.16 90.9477 49.1067 90.4944 50.92C90.041 52.7067 89.9344 53.76 90.1744 54.08C90.761 54.0267 91.5877 53.1733 92.6544 51.52C93.721 49.84 94.6677 47.9867 95.4944 45.96C95.5744 45.7733 95.7077 45.64 95.8944 45.56ZM88.2544 44.32C88.7077 43.2 88.9077 42.4267 88.8544 42C88.7744 41.9467 88.6677 41.92 88.5344 41.92C88.0544 41.92 87.6944 42.16 87.4544 42.64C87.241 43.04 87.3477 43.4667 87.7744 43.92C87.9344 44.08 88.0944 44.2133 88.2544 44.32ZM110.953 45.52C111.166 45.52 111.326 45.6 111.433 45.76C111.566 45.92 111.619 46.1067 111.593 46.32C111.593 46.5067 111.513 46.6533 111.353 46.76C107.779 49.8267 105.219 51.36 103.673 51.36C103.219 51.36 102.833 51.24 102.513 51C101.553 50.28 101.419 48.64 102.113 46.08C102.006 46.24 101.846 46.44 101.633 46.68C100.859 47.6933 99.9925 48.4933 99.0325 49.08C98.0992 49.6667 97.2725 49.8133 96.5525 49.52C95.5658 49.0933 95.1925 47.96 95.4325 46.12C95.5392 45.24 95.8592 44.4533 96.3925 43.76C96.9258 43.0667 97.4992 42.5467 98.1125 42.2C98.7258 41.8533 99.4192 41.5733 100.193 41.36C100.966 41.12 101.513 40.9733 101.833 40.92C102.153 40.8667 102.419 40.84 102.633 40.84C102.766 40.8133 102.886 40.84 102.993 40.92C103.126 40.9733 103.219 41.0533 103.273 41.16C103.353 41.24 103.406 41.3467 103.433 41.48C103.433 41.6933 103.366 41.88 103.233 42.04C103.126 42.1733 102.966 42.2533 102.753 42.28C102.699 42.28 102.593 42.2933 102.433 42.32C102.273 42.32 102.006 42.36 101.633 42.44C101.286 42.52 100.926 42.6133 100.553 42.72C100.179 42.8267 99.7792 42.9867 99.3525 43.2C98.9258 43.4133 98.5392 43.6667 98.1925 43.96C97.8725 44.2267 97.5792 44.5733 97.3125 45C97.0725 45.4 96.9125 45.84 96.8325 46.32C96.6992 47.4133 96.7925 48.0267 97.1125 48.16C97.3792 48.2667 97.8458 48.12 98.5125 47.72C99.1792 47.2933 99.8458 46.6533 100.513 45.8C102.033 43.8533 103.099 42.5733 103.713 41.96C104.006 41.6667 104.313 41.64 104.633 41.88C104.979 42.0933 105.059 42.3867 104.873 42.76C104.179 44.28 103.673 45.7467 103.353 47.16C103.033 48.5733 103.046 49.4667 103.393 49.84C103.419 49.8933 103.486 49.9333 103.593 49.96C103.699 49.96 103.926 49.92 104.273 49.84C104.619 49.7333 105.033 49.56 105.513 49.32C105.993 49.0533 106.659 48.6133 107.513 48C108.393 47.3867 109.366 46.6133 110.433 45.68C110.593 45.5467 110.766 45.4933 110.953 45.52Z" fill="#353535"/>
</svg>
