<svg width="9" height="8" viewBox="0 0 9 8" fill="none" xmlns="http://www.w3.org/2000/svg">
<path d="M7.00309 7.99998C6.93005 7.99997 6.8581 7.98339 6.79348 7.95165L4.49998 6.82775L2.20649 7.95165C2.13218 7.98809 2.04841 8.00443 1.96466 7.99882C1.88091 7.9932 1.80052 7.96586 1.73258 7.91987C1.66463 7.87389 1.61185 7.81111 1.5802 7.73862C1.54854 7.66614 1.53928 7.58684 1.55346 7.50971L1.99159 5.12921L0.135801 3.44337C0.0756909 3.38875 0.0331818 3.31953 0.0130822 3.24356C-0.00701733 3.16759 -0.00390521 3.08789 0.0220666 3.01348C0.0480385 2.93907 0.0958335 2.87292 0.160045 2.82251C0.224257 2.7721 0.302322 2.73945 0.38541 2.72824L2.94961 2.38092L4.09658 0.215047C4.13791 0.149564 4.19687 0.0952769 4.26763 0.0575589C4.33839 0.019841 4.41849 0 4.5 0C4.58151 0 4.66161 0.019841 4.73237 0.0575589C4.80313 0.0952769 4.86209 0.149564 4.90342 0.215047L6.05039 2.38092L8.61459 2.72824C8.69768 2.73945 8.77574 2.7721 8.83996 2.82251C8.90417 2.87292 8.95196 2.93907 8.97793 3.01348C9.00391 3.08789 9.00702 3.16759 8.98692 3.24356C8.96682 3.31953 8.92431 3.38875 8.8642 3.44337L7.00841 5.12921L7.44654 7.50971C7.45759 7.56989 7.45442 7.63161 7.43723 7.69053C7.42004 7.74945 7.38927 7.80417 7.34704 7.85086C7.30482 7.89755 7.25216 7.93509 7.19276 7.96084C7.13336 7.9866 7.06864 7.99997 7.00313 8L7.00309 7.99998Z" fill="#EF8836"/>
</svg>
